<?xml version="1.0" encoding="utf-8"?>
<!-- Generator: Adobe Illustrator 15.1.0, SVG Export Plug-In . SVG Version: 6.00 Build 0)  -->
<!DOCTYPE svg PUBLIC "-//W3C//DTD SVG 1.1//EN" "http://www.w3.org/Graphics/SVG/1.1/DTD/svg11.dtd">
<svg version="1.1" xmlns="http://www.w3.org/2000/svg" xmlns:xlink="http://www.w3.org/1999/xlink" x="0px" y="0px"
	 width="1445.808px" height="1352.762px" viewBox="0 0 1445.808 1352.762" enable-background="new 0 0 1445.808 1352.762"
	 xml:space="preserve">
<g id="ëÎÓÈ_1">
</g>
<g id="ëÎÓÈ_2">
	<g>
		<path fill="#28415E" d="M1182.807,1076.627c-1.52-0.211-2.999,0.459-4.314,1.141c-0.952-0.945-2.803-0.295-4.077-1.078
			c-1.163-0.721-1.819-2.01-3.068-2.686c-3.24-1.756-7.481-1.135-11.022-1.416c-5.925-0.473-10.998-1.527-15.375-5.861
			c-2.118-2.096-3.948-3.178-6.825-4.037c-3.67-1.1-6.501-3.182-9.794-5.066c-0.021-0.014-1.277-0.736-1.277-0.736
			c-10.982-4.877-23.451-10.344-30.545-20.535c-1.237-1.779-2.121-3.709-3.644-5.289c-2.491-2.594-5.836-4.275-8.754-6.336
			c-3.366-2.375-7.091-4.48-10.291-7.059c-3.107-2.502-5.721-5.549-8.639-8.264c-4.334-4.025-7.137-10.781-13.172-12.602
			c-5.143-1.551-10.881-3.264-15.381-6.262c-2.283-1.521-4.113-3.652-6.113-5.977c-1.403-1.633-2.856-3.316-4.549-4.83
			c-1.701-1.52-3.331-3.207-5.039-4.969c-1.175-1.219-2.387-2.477-3.635-3.676c-3.466-3.328-8.228-4.514-12.847-3.131
			c-1.846,0.555-4.63,1.391-6.233,2.457c-1.982,1.324-3.032,3.996-4.987,5.486c-1.888,1.439-4.155,2.385-6.094,3.807
			c-5.233,3.83-9.998,8.58-15.962,11.289c-5.824,2.645-11.223,7.107-15.591,11.809c-1.917,2.064-3.045,4.498-5.358,6.086
			c-2.82,1.939-5.819,3.631-8.778,5.346c-3.047,1.768-6.201,3.592-9.225,5.629c-1.503,1.006-3.345,2.922-3.771,5.104
			c-0.501,0.99-0.469,2.062-0.446,2.883c0.006,0.186,0.015,0.465,0.006,0.656c-0.028,0.027-0.058,0.055-0.086,0.084
			c-2.433-3.096-8.096-4.252-11.203-6.764c-4.48-3.617-6.18-8.807-11.456-11.863c-3.16-1.832-6.749-2.557-9.841-4.541
			c-2.892-1.861-5.38-4.277-7.771-6.73c-1.885-1.928-3.267-4.688-4.604-7.367c-1.528-3.062-3.105-6.229-5.598-8.701
			c-2.48-2.459-5.646-4.016-8.783-5.559c-2.671-1.312-5.433-2.664-7.39-4.521c-2.015-1.908-3.88-4.143-5.707-6.336
			c-2.115-2.539-4.305-5.17-6.88-7.471c-3.474-3.107-7.221-5.928-10.844-8.654c-3.609-2.717-7.339-5.527-10.723-8.568l-0.271-0.24
			c0-0.117-0.006-0.229-0.018-0.34l0.077-0.441l-0.37-0.469c-0.087-0.148-0.182-0.281-0.281-0.396
			c-0.957-1.113-1.356-2.602-2.562-3.74c-1.264-1.188-2.637-2.207-3.791-3.514c-3.657-4.135-2.71-9.838-5.827-13.988
			c-1.963-2.617-4.961-3.416-7.655-4.969c-3.113-1.791-5.157-4.914-7.735-7.33c-1.804-1.695-3.672-3.445-5.203-5.322
			c-1.628-2.004-2.538-4.701-3.514-7.59c-0.82-2.451-1.752-5.225-3.266-7.584c-0.841-1.299-1.6-2.693-2.441-4.23
			c-1.721-3.158-3.501-6.424-6.095-8.961c-3.004-2.943-7.107-3.852-11.079-4.73c-2.285-0.506-4.443-0.979-6.268-1.83
			c-2.515-1.176-4.518-2.947-6.647-4.826c-1.197-1.062-2.556-2.266-4.046-3.354c-3.305-2.42-7.88-4.939-12.035-3.568
			c-0.903,0.297-1.755,0.707-2.579,1.178c-2.324,1.334-4.409,3.162-6.781,4.373c-2.246,1.148-4.735,1.672-6.917,2.955
			c-2.94,1.736-4.765,4.289-6.411,7.225c-2.285,4.074-4.161,6.422-7.723,9.27c-2.654,2.119-5.118,4.484-7.529,6.865
			c-3.333,3.289-5.462,8.479-10.05,10.139c-4.725,1.709-7.928,3.785-11.419,7.555c-4.558,4.92-10.488,8.482-15.96,12.297
			l-3.623,2.523c-2.932,2.057-5.231,4.781-7.456,7.414c-1.755,2.086-3.574,4.242-5.629,5.904c-2.188,1.76-5.042,3.008-7.804,4.211
			c-2.786,1.209-5.94,2.582-8.554,4.617c-3.137,2.439-6.222,5.031-9.375,7.676c-2.168,1.822-4.404,3.701-6.642,5.498l-2.054,1.666
			l0.165,0.154c-2.658,2.156-4.888,4.582-7.02,7.232c-1.735,2.156-3.657,2.904-6.011,4.277
			c-6.311,3.686-12.153,10.416-17.281,15.562c-2.623,2.633-5.335,5.357-8.108,7.871l-3.207,2.908
			c-3.263,2.943-6.641,5.99-9.882,9.092c-1.947,1.863-4.182,3.541-6.344,5.166c-2.395,1.803-5.11,3.844-7.432,6.184
			c-2.381,2.398-4.586,5.049-6.532,7.385l-0.205,0.25c-1.289,1.541-2.611,3.123-3.979,4.641l-0.555-0.193
			c-2.039-0.713-4.146-1.453-6.412-1.928c-5.205-1.088-10.592-2.924-16.012-5.455c-1.854-0.869-3.792-1.662-5.735-2.453
			c-3.278-1.342-6.668-2.732-9.599-4.551c-2.974-1.85-5.605-4.48-8.149-7.023c-1.621-1.623-3.457-3.463-5.425-5.094
			c-1.425-1.176-3.249-2.174-5.209-3.25c-3.097-1.697-6.298-3.453-7.202-5.605c-2.095-4.986-4.649-8.396-10.911-9.988
			c-9.296-2.363-15.994,4.471-21.562,10.824c-5.271,6.016-11.772,10.186-17.261,16.08c-1.424,1.529-2.825,3.113-4.178,4.645
			c-2.39,2.703-4.861,5.5-7.519,8.047c-2.397,2.293-4.38,4.951-6.316,7.549c-1.627,2.18-3.311,4.438-5.173,6.338
			c-1.71,1.746-3.74,3.334-5.727,4.889c-2.738,2.145-5.566,4.361-7.854,7.182c-1.611,1.984-3.064,4.055-4.475,6.064
			c-4.085,5.812-8.23,11.92-15.521,13.482c-2.893,0.619-5.417,1.586-7.579,3.742c-2.58,2.572-2.465,6.311-4.777,8.947
			c-5.058,5.766-12.205,10.855-18.521,15.146c-3.587,2.438-7.159,3.375-11.052,5.152c-4.307,1.965-5.491,5.426-8.349,7.344
			c-1.441,0.963-3.131,1.742-4.764,2.5c-3.599,1.652-7.67,3.52-9.747,7.807c-1.119,1.154-1.387,2.734-1.629,4.152
			c-0.807,4.793-9.874,2.936-13.585,4.41c-4.379,1.738-8.14,5.998-11.179,8.857c-5.395,5.076-10.19,9.43-14.003,15.977
			c-0.001,0.004-2.1,3.607-2.1,3.607l4.169-0.199c4.215-0.205,8.747-0.395,13.331-0.395c4.54,0,9.158,0.773,13.689,0.367
			c2.735-0.246,4.84-1.439,7.348-2.35c2.879-1.041,5.508,0.229,8.225-0.369c0.903-0.197,1.417-0.777,2.398-0.875
			c0.991-0.1,2.153,0.24,3.122,0.443c2.123,0.441,4.179,1.193,6.225,1.893c3.031,1.041,6.168,2.111,9.372,2.453
			c7.533,0.809,16.055-0.221,23.82-2.881c2.074-0.713,3.825-1.811,5.401-2.799c3.386-2.127,6.971-2.621,10.553-4.139
			c4.086-1.736,8.301-0.137,12.443,0.754c5.224,1.119,10.424,1.734,15.649,2.738c3.339,0.643,7.13,0.863,10.321,2.004
			c2.733,0.977,4.636,1.387,7.649,1.154c1.306-0.102,2.745-0.193,3.721-0.064c1.581,0.24,3.377-0.051,5.085-0.371
			c1.282-0.234,2.532-0.432,3.466-0.33c1.047,0.125,2.874,0.748,4.821,1.41c3.268,1.104,7.335,2.484,11.295,2.834
			c1.152,0.102,2.165,0.152,3.098,0.152c3.822,0,6.445-0.846,8.255-2.662c1.624-1.637,2.406-3.877,2.391-6.852
			c-0.034-7.404-5.572-10.898-8.361-16.984c-1.214-2.648-1.961-4.834-4.305-6.822c-2.523-2.139-4.751-4.117-6.985-6.584
			c-2.275-2.521-4.799-4.934-7.562-6.891c-2.212-1.568-4.64-3.783-4.856-6.711c-0.274-3.686,4.851-3.695,7.529-4.207
			c1.412-0.271,2.822-0.57,4.295-0.883c3.706-0.783,7.537-1.596,11.457-1.842c0.564,0,1.289,0.092,2.062,0.182
			c1.077,0.131,2.197,0.254,3.267,0.254c1.863,0,3.205-0.385,4.226-1.209c0.523-0.424,1.744-1.418,1.762-2.963
			c0.016-1.438-0.977-2.293-1.653-2.875c-0.336-0.283-0.716-0.607-1.028-1.025c-2.818-3.826-6.506-8.25-10.462-10.926
			c-3.705-2.504-4.131-6.127-6.86-9.5c-0.357-0.443-2.399-2.559-2.74-2.701c-0.301-0.129-2.556,0.418-2.646,0.248
			c-1.259-2.328-1.938-5.092-2.595-7.771c-0.953-3.863-1.939-7.857-4.638-11.15c-0.91-1.113-1.916-2.684-1.536-3.865
			c0.298-0.918,1.719-2.701,7.895-4.33c3.157-0.838,7.168-1.248,12.257-1.248c4.76,0,9.448-2.75,13.938-8.174l0.521-0.602
			c0.809-0.918,1.643-1.863,1.92-3.504c0.145-0.857-0.071-1.584-0.246-2.17c-0.21-0.705-0.183-0.738-0.089-0.854
			c0.209-0.258,0.412-0.357,0.723-0.357c4.01,0,13.392,12.506,17.398,17.842c1.56,2.076,2.684,3.578,3.31,4.217
			c3.297,3.367,6.775,4.836,10.626,4.24c2.186-0.338,3.942-1.502,5.643-2.627c1.452-0.963,2.825-1.873,4.306-2.135
			c4.445-0.783,7.457,2.289,10.706,5.594c1.73,1.762,3.521,3.582,5.565,4.795c3.299,1.945,6.827,2.75,10.241,3.525
			c1.855,0.422,3.774,0.859,5.601,1.473c1.803,0.611,3.353,1.621,4.992,2.691c1.231,0.805,2.504,1.633,3.925,2.309
			c2.378,1.131,4.902,1.68,7.72,1.68c3.698,0,7.369-0.955,10.919-1.877c3.428-0.893,6.672-1.736,9.886-1.777
			c0.133,0.916,0.249,1.82,0.364,2.709l0.047,0.375c0.504,3.945,0.979,7.678,2.451,10.691c1.756,3.584,4.256,6.898,10.593,6.898
			c1.071,0,2.251-0.092,3.502-0.277c1.872-0.273,3.62-1.033,5.468-1.373c2.16-0.398,4.462-0.502,6.562-1.17
			c1.797-0.572,3.291-1.744,5.021-2.504c4.66-2.049,10.331,0.672,14.809,2.078c5.36,1.688,11.456,0.438,16.786,2.506
			c5.382,2.09,8.04,7.459,12.875,10.076c1.773,0.959,3.715,1.234,5.479,2.318c2.59,1.594,5.048,3.459,7.505,5.25
			c2.867,2.09,5.946,4.209,9.308,5.936c-1.189,0-2.529,0.061-3.948,0.646c-1.757,0.721-3.491,1.311-5.291,1.922
			c-2.272,0.766-4.854,1.633-7.43,2.809c-0.315,0-0.705-0.053-1.067-0.105c-2.936-0.467-3.56,0.689-5.603,2.232
			c-1.923,1.447-4.3,2.189-6.239,3.752c-2.019,1.629-3.068,0.881-5.024,1.629c-2.205,0.84-4.524,3.486-6.35,4.973
			c-1.686,1.369-3.435,2.789-5.087,4.027c-3.478,2.611-7.207,4.994-11.383,7.666l-3.4,2.189c-4.309,2.801-8.265,6.9-11.906,10.523
			c-2.126,2.113-3.233,8.076,0.974,8.199c1.693,0.045,3.838-0.871,5.533-1.143c2.803-0.449,5.422-1.154,8.132-1.982l0.435-0.133
			c4.02-1.227,8.301-2.748,12.405-3.59c6.751-1.383,12.776-1.799,19.505-0.75c2.704,0.428,5.451,0.271,8.173,0.504
			c2.043,0.18,4.046,0.658,6.084,0.182c3.827-0.895,6.566-2.643,10.522-1.781c3.906,0.848,7.642,0.828,11.521,2.031
			c3.097,0.955,6.296,1.945,9.561,2.242c9.11,0.811,15.324-1.732,18.359-7.494c0.953-1.805,1.447-4.053,1.986-6.488
			c1.416-6.459,2.479-8.752,5.641-8.752c0.345,0,0.72,0.029,1.091,0.08c2.478,0.369,4.998,1.016,7.22,1.59
			c1.791,0.461,3.644,0.934,5.477,1.291c3.338,0.645,5.032,0.678,7.554-0.688l2.273-1.248c5.58-3.08,9.197-5.059,15.831-4.779
			c1.117,0.047,2.728,0.338,4.463,0.648c2.541,0.457,5.419,0.979,8.093,0.979c4.254,0,7.154-1.391,8.621-4.133
			c1.302-2.438,0.93-5.158,0.605-7.562c-0.289-2.131-0.774-4.295,1.168-5.613c1.963-1.342,4.961-0.721,6.854-2.07
			c3.821-2.727-2.604-12.285-3.441-15.707l-0.115-0.48c-1.506-6.117-1.779-9.883-0.812-11.203c0.253-0.352,0.391-0.352,0.529-0.352
			c1.842,0,3.771,2.146,5.027,3.299c1.771,1.619,2.806,1.666,4.912,2.506c3.022,1.209,5.451,3.562,7.639,5.9
			c0.846,0.902,1.533,2.186,2.445,2.982c1.048,0.916,2.488,1.195,3.652,1.947c5.326,3.449,10.399,6.064,16.97,8.742
			c1.761,0.721,3.54,1.66,5.295,2.59c2.515,1.33,5.12,2.705,7.957,3.613c4.424,1.42,8.446,2.605,12.724,2.471
			c-0.026,1.012-0.119,2.086-0.214,3.221c-0.233,2.643-0.495,5.637,0.222,8.408l0.412,1.574l1.611,0.111
			c1.002,0.078,2.037,0.115,3.085,0.115c5.979,0,11.781-1.23,17.388-2.416l2.057-0.426c4.395-0.908,6.956-0.609,10.887,1.23
			l1.123,0.498c1.219,0.531,2.48,1.084,3.209,1.848c0.398,0.422,0.623,0.812,0.891,1.27c0.625,1.08,1.402,2.424,3.945,3.375
			c0.919,0.344,1.911,0.516,2.945,0.516c2.42,0,4.71-0.902,6.938-1.779c1.52-0.596,2.949-1.16,4.179-1.324
			c2.606-0.357,5.29,0.518,7.969,2.549c3.467,2.635,6.685,5.766,8.607,8.375c0.513,0.695,0.927,1.865,1.369,3.121
			c0.916,2.568,2.055,5.771,5.077,6.961c0.576,0.232,1.208,0.352,1.876,0.352c2.135,0,4.145-1.189,6.106-2.354
			c0.976-0.578,1.986-1.18,2.665-1.377c3.454-0.996,4.345-0.559,7.212,1.756c0.749,0.602,1.601,1.289,2.612,2.006
			c3.005,2.125,5.336,1.727,7.442,0.914c0.673-0.266,1.438-0.568,2.469-0.793c1.156-0.252,3.287-0.035,5.094,0.244
			c0.927,0.141,1.877,0.283,2.772,0.344c2.79,0.211,5.657,0.676,8.238,1.098c3.764,0.607,7.661,1.232,11.605,1.232
			c0.777,0,1.546-0.023,2.279-0.074c2.276-0.145,3.318-2.174,4.084-3.664c0.202-0.4,0.454-0.898,0.627-1.121
			c0.575-0.711,0.726-1.668,0.409-2.627c-0.826-2.494-7.094-7.689-8.609-8.098c-0.991-0.262-2.292-0.25-4.168-0.072
			c-0.518,0.049-1.005,0.096-1.468,0.096c-0.863,0-0.938-0.158-0.967-0.225c-0.058-0.127-0.109-0.238-0.155-0.338
			c0.313-0.258,0.699-0.584,1.146-1.02l0.63-0.629c1.289-1.291,1.487-1.49,3.555-2l0.367-0.086c2.564-0.621,4.777-1.158,6.444-4.408
			c0.389-0.756,0.5-0.783,1.882-1.092c0.842-0.189,1.993-0.449,3.364-1.035c2.404-1.018,3.729-2.734,4.914-4.268
			c0.766-0.988,1.488-1.922,2.508-2.664c0.75-0.553,1.519-0.992,2.368-1.477c2.48-1.41,5.877-3.338,4.599-8.34
			c-0.409-1.602-1.422-3.086-2.417-4.545c-0.987-1.447-2.217-3.246-1.935-4.227c0.434-1.484,1.851-2.236,4.213-2.236
			c4.253,0,9.289,2.506,10.608,4.189c0.25,0.322,0.442,1.135,0.606,1.818c0.278,1.17,0.591,2.5,1.509,3.566
			c1.367,1.598,2.166,1.881,3.922,2.236l0.592,0.123c3.954,0.838,7.837,4.436,11.302,7.646c0.792,0.73,1.545,1.434,2.271,2.068
			c3.051,2.68,6.538,4.846,10.665,6.623c1.991,0.857,4.023,1.594,5.992,2.307c1.743,0.631,3.547,1.289,5.294,2.021
			c2.325,0.977,4.18,2.246,5.664,3.873c0.155,0.18,0.396,0.584,0.638,0.977c1.132,1.793,2.533,4.025,4.778,4.072
			c2.399,0,3.517-1.955,4.188-3.125c0.135-0.234,0.54-0.947,0.78-1.006c2.022,0.598,4.627,3.639,5.657,5.512
			c2.975,5.408,6.631,6.543,9.173,6.543c1.158,0,2.363-0.227,3.59-0.674c1.527-0.559,2.615-0.82,3.415-0.82
			c0.921,0,1.589,0.357,3.138,1.238c0.602,0.342,1.277,0.725,2.066,1.133c1.282,0.664,2.791,0.984,4.615,0.984
			c1.471,0,2.936-0.205,4.219-0.383l0.306-0.041c0.528-0.07,1.047-0.139,1.548-0.186c4.357-0.424,5.453-3.021,5.721-4.121
			c0.628-2.572-0.895-5.553-3.78-7.41c-1.423-0.918-3.027-1.119-4.513-1.303c-1.031-0.131-2.003-0.248-2.562-0.604
			c-1.146-0.738-2.112-2.061-3.146-3.479c-0.981-1.346-2.092-2.875-3.525-4.023c-2.17-1.736-4.944-1.75-7.433-1.766
			c-1.432-0.01-2.781-0.014-3.759-0.355c-0.976-0.334-1.896-1.559-2.878-2.861c-1.194-1.59-2.547-3.393-4.604-4.24
			c-1.604-0.656-3.267-0.932-4.737-1.176c-1.391-0.232-2.699-0.449-3.836-0.93c-1.778-0.75-3.649-1.463-5.474-2.15
			c-5.287-2.006-10.752-4.082-14.795-7.611c-0.558-0.486-1.108-0.814-1.721-1.17c-0.135-0.293-0.273-0.986-0.359-1.422
			c-0.254-1.297-0.576-2.914-1.646-3.811c-0.99-1.232-2.504-1.646-3.615-1.953c-0.359-0.096-1.029-0.281-1.14-0.336
			c-2.917-3.471-6.405-6.225-8.507-10.225c-2.135-4.062-7.403-5.346-11.269-7.268c-4.242-2.115-6.05-4.447-8.035-8.604
			c-1.54-3.213-3.963-5.816-7.775-4.449c-3.629,1.301-6.529,5.039-8.927,7.875c-1.485,1.756-2.906,3.562-4.472,5.248
			c-0.847,0.91-3.929,4.871-5.155,4.887c-0.232,0.002-0.617-0.008-1.128-0.045c-1.298-0.08-2.454-0.016-3.349,0.404
			c-5.682,2.668-8.476,7.908-12.948,11.988c-3.067,2.801-7.32,2.898-10.645,5.08c-3.564,2.336-6.264,5.686-9.896,7.994
			c-3.091,1.963-5.963,4.127-8.968,6.178c-2.924,1.998-5.694,1.389-8.989,0.721c-4.276-0.863-8.829-0.273-12.996-1.623
			c-2.613-0.846-5.237-2.002-7.827-3.141c-2.403-1.062-5.122-2.26-7.905-3.188c-2.835-0.943-5.799-1.619-8.414-2.217
			c-2.666-0.613-5.423-1.242-7.998-2.102c-2.624-0.873-5.267-1.857-7.815-2.814c-3.103-1.156-5.9-2.191-8.761-3.121
			c-2.562-0.83-5.134-1.908-7.874-3.059c-2.777-1.16-5.646-2.359-8.609-3.273c-2.959-0.914-6.13-1.848-9.21-2.211
			c-1.882-0.225-3.777,0.189-5.64-0.1c-5.675-0.877-10.745-5.418-16.116-7.387c-2.745-1.004-4.938-1.344-7.19-3.277
			c-2.19-1.881-3.29-4.473-5.318-6.48c-1.314-1.301-3.02-1.82-4.559-2.783c-5.171-3.232-9.957-7.16-15.249-10.277
			c-1.108-0.646-2.245-1.373-3.558-2.211c-3.263-2.08-6.963-4.439-10.978-5.924c-4.7-1.727-10.19-1.969-16.818-0.725
			c-0.313-0.084-0.65-0.18-1.042-0.291c-1.718-0.479-3.66-1.018-5.643-1.018c-2.176,0-3.995,0.666-5.411,1.979
			c-3.775,3.486-7.845,5.719-12.34,8.182c-1.721,0.943-3.493,1.916-5.312,3.006c-1.657,0.996-2.229,2.867-2.746,4.559
			c-1.047,3.434-4.149,5.645-5.922,8.65c-1.016,1.721-0.817,2.066-2.971,2.188c-2.257,0.125-4.494-0.176-6.762,0.086
			c-3.172,0.365-4.138,2.473-6.838,3.414c-6.897,2.398-13.784,4.76-20.259,8.189c-2.734,1.451-4.554,2.957-6.481,4.557
			c-0.123,0.104-0.25,0.207-0.38,0.312c-0.507-0.609-1.03-1.15-1.548-1.664l0.515-0.002c-1.378,0-4.952-5.264-5.807-6.26
			c-1.2-1.393-1.652-1.178-3.203-1.799c-2.59-1.043-5.187-3.334-7.126-5.297c-4.207-4.264-6.501-9.879-8.798-15.318
			c-3.208-7.59-3.827-11.207,0.631-13.941c5.84-3.582,12.587-6.135,19.482-7.268c6.705-1.096,11.96-3.32,17.228-7.889
			c1.582-1.375,2.966-3.791,3.585-5.455c0.219-0.594,0.535-1.152,0.853-1.707c0.811-1.459,1.824-3.275,1.263-5.562
			c-0.693-2.814-1.938-4.895-3.134-6.904c-0.501-0.834-1.016-1.699-1.514-2.629c-0.415-0.828-0.766-1.701-1.169-2.705
			c-0.685-1.701-1.387-3.457-2.458-4.928c-0.321-0.506-0.865-1.006-2.456-2.416c-1.399-1.242-2.326-2.104-2.755-2.541
			c0.29-0.205,1.31-0.699,4.351-0.699c0.683,0,1.315,0.025,1.862,0.047l0.699,0.018c2.464,0.055,5.034,0.428,7.525,0.787
			c3.277,0.473,6.705,0.98,10.136,0.805c10.015-0.467,18.405-2.803,24.944-6.945c1.775-1.125,3.341-2.404,4.771-3.906l0.582,0.475
			l0.979-1.16c2.217-2.629,2.726-5.947,3.191-8.992c0.132-0.863,0.268-1.758,0.455-2.631c1.815-8.625,1.772-15.629,1.112-24.133
			c-0.373-4.908-0.407-10.016,1.84-14.211c0.086-0.08,0.176-0.156,0.263-0.227c0.5-0.422,1.19-1.004,1.467-1.676
			c0.297-0.424,0.507-0.891,0.631-1.43l0.61-0.814h0.37l0.68-1.307c0.037-0.074,0.086-0.166,0.132-0.273
			c0.095-0.129,0.188-0.26,0.268-0.385c2.421-3.43,3.646-6.549,2.751-12.332c-0.645-4.178-0.852-11.529,2.461-12.576
			c2.596-0.805,5.732,4.541,7.62,7.68c0.715,1.193,1.329,2.215,1.886,2.971c3.032,4.115,6.615,7.982,10.08,11.723
			c2.308,2.488,4.273,4.977,7.12,6.676c2.945,1.758,4.031,4.699,5.925,7.43c2.59,3.736,5.253,7.895,9.694,9.559
			c1.93,0.717,3.478,0.5,5.429,0.623c3.125,0.203,6.195,2.504,9.294,3.248c5.149,1.23,10.091,2.523,14.131,6.158
			c4.822,4.336,1.484,11.803,4.276,17.115c2.613,4.969,7.333,7.826,11.92,10.6c1.761,1.066,3.764,2.271,5.468,3.568
			c3.654,2.777,8.172,5.789,12.897,6.299c5.552,0.6,8.501,3.588,12.357,7.209c0.17,0.154,0.346,0.318,0.553,0.518
			c0.513,2.1,1.229,5.09,1.107,6.613c-0.227,2.9,0.613,5.885,1.477,8.662c1.476,4.74,5.991,7.301,10.047,9.744
			c1.914,1.152,3.928,3.08,6.005,3.75c1.207,0.393,2.13,0.195,3.333,0.949c1.251,0.783,2.21,1.973,3.396,2.844
			c3.707,2.725,7.229,6.566,12.006,5.646c3.316-0.639,6.861,0.109,9.975,1.635c1.533,0.752,2.556,2.201,3.752,3.895
			c1.264,1.793,2.697,3.824,5.014,5.162c1.985,1.146,4.185,1.201,6.158,1.25c1.348,0.037,2.622,0.074,3.586,0.463
			c1.42,0.572,2.739,1.875,4.174,3.287c1.032,1.023,2.103,2.078,3.219,2.855c0.752,0.643,1.58,1.062,2.441,1.496
			c0.624,0.309,1.131,0.566,1.487,0.857c0.53,0.439,1.042,0.887,1.555,1.338c1.352,1.193,2.756,2.426,4.482,3.43
			c1.361,0.789,2.504,1.992,3.748,3.299c0.566,0.6,1.15,1.217,1.778,1.816c1.3,1.234,2.88,1.889,4.569,1.889
			c2.866,0,5.675-1.9,6.987-4.73c0.874-2.188,0.02-3.666,0.311-5.82c0.279-2.064,2.164-3.91,3.111-5.73
			c2.817-5.416,1.514-10.043,1.393-15.918c-0.117-5.764,4.711-8.258,9.902-8.943c5.657-0.746,9.629-8.199,10.365-13.33
			c0.357-2.51,0.306-4.635,3.356-4.686c3.036-0.051,5.594,1.086,5.804-3.07c0.219-4.371-0.863-8.539-3.294-12.203l-5.606-8.461
			c0.034-0.381,0.108-0.783,0.229-1.203c0.974-3.338,2.587-3.766,3.885-3.766c1.849,0,4.444,0.986,7.73,2.941
			c0,0,1.175,0.672,1.186,0.678c5.88,2.992,6.044,10.107,10.602,14.107c1.485,1.311,3.522,1.41,5.296,2.076
			c2.068,0.781,3.948,2.127,5.677,3.488c2.104,1.66,3.67,3.418,4.821,5.838c1.369,2.879,2.014,6.42,4.645,8.463
			c2.652,2.059,6.235,2.346,9.035,4.15c1.744,1.121,3.04,2.361,4.968,3.266c2.555,1.193,5.007,2.451,7.146,4.322
			c3.644,3.191,5.036,7.305,6.005,12.496c0,0,0.122,0.639,0.122,0.641c1.11,5.98,3.45,11.684,8.686,15.135
			c7.643,5.039,13.939,0.979,22.037,0.238c7.02-0.639,13.036,3.756,18.113,8.096c3.925,3.354,6.958,6.547,12.452,6.621
			c4.215,0.059,8.009-1.633,12.043-2.578c5.618-1.316,9.747,0.617,14.752,2.949c4.506,2.109,9.168,4.295,14.235,5.02
			c0.193,0.029,0.389,0.039,0.584,0.049l0.427,0.025c4.412,0,7.452-4.312,7.734-8.311
			C1188.383,1080.012,1186.254,1077.122,1182.807,1076.627z"/>
		<g>
			<path fill="#28415E" d="M676.716,328.907c2.587,0,5.205-1.74,5.205-5.066c0-11.715-1.092-22.902,0-34.962
				c0.09-0.992,0.669-1.428,1.896-1.454h1.359c1.531,0,2.886-0.598,3.814-1.683c0.807-0.943,1.252-2.194,1.252-3.522
				c0-2.587-1.74-5.206-5.066-5.206c-4.948,0-22.072-2.388-22.033,5.235c0.014,2.577,1.769,5.176,5.112,5.176h1.327
				c1.267,0.026,1.83,0.469,1.928,1.525c1.059,11.412,0,23.456,0,34.891C671.511,327.167,674.13,328.907,676.716,328.907z"/>
			<path fill="#28415E" d="M707.052,282.096c0,6.945,0.356,14.532,0.505,21.723c0.138,6.65-0.505,13.303-0.505,20.021
				c0,3.326,2.619,5.066,5.205,5.066s5.205-1.74,5.205-5.066v-14.892c0.136-0.825,0.479-1.355,1.645-1.455h3.404
				c1.03,0.088,1.508,0.509,1.585,1.399v14.947c0,3.326,2.618,5.066,5.205,5.066c2.997,0,4.505-2.1,5.185-4.757
				c1.293-5.059,0.356-11.678-0.329-16.802c-1.123-8.391,0.354-16.759,0.35-25.257c-0.002-3.323-2.619-5.062-5.205-5.062
				c-2.587,0-5.205,1.74-5.205,5.066v13.588c-0.241,2.692-6.142,1.659-6.632-0.699c-0.285-1.37-0.002-3.105-0.003-4.504
				c-0.001-2.794,0.001-5.59,0.001-8.385c0-3.326-2.619-5.066-5.205-5.066S707.052,278.77,707.052,282.096z"/>
			<path fill="#28415E" d="M766.429,287.424h9.819c1.542,0,2.906-0.595,3.843-1.676c0.818-0.944,1.27-2.198,1.27-3.529
				c0-6.915-9.776-5.384-14.473-5.632c-4.979-0.264-12.162,0.544-12.76,6.785c-0.399,4.171-0.204,8.623,0.211,12.739
				c0.718,7.131-0.063,14.781-0.244,21.952c-0.078,3.197-0.166,6.82,2.024,9.064c1.161,1.19,2.802,1.794,4.874,1.794h15.255
				c3.356,0,5.112-2.618,5.112-5.205s-1.756-5.206-5.112-5.206c-3.157,0-11.14,1.768-11.732-2.673
				c-0.285-2.137,0.015-4.536,0.016-6.695c0-0.678,0.29-1.508,1.658-1.649h8.452c3.326,0,5.066-2.618,5.066-5.205
				c0-2.586-1.74-5.205-5.066-5.205c-1.766,0-10.108,1.373-10.11-1.587c0-0.024,0-6.423,0-6.423
				C764.532,287.461,765.982,287.433,766.429,287.424z"/>
		</g>
		<g>
			<path fill="#B79D55" d="M722.274,133.072L722.274,133.072c2.212,0,4.475-1.494,4.52-4.351c0.043-2.815,0.324-5.691,0.596-8.472
				c0.276-2.832,0.562-5.761,0.609-8.691c0.019-1.22-0.391-2.29-1.184-3.095c-0.813-0.826-1.996-1.301-3.243-1.301
				c-2.212,0-4.474,1.494-4.518,4.35c-0.043,2.812-0.324,5.682-0.596,8.458c-0.277,2.837-0.564,5.771-0.609,8.704
				c-0.02,1.221,0.39,2.291,1.182,3.096C719.845,132.597,721.027,133.072,722.274,133.072z"/>
			<path fill="#B79D55" d="M722.895,479.446c2.219,0,4.473-1.501,4.486-4.367c0.033-6.914-0.512-13.84-0.517-20.688
				c-0.006-7.154,0.018-14.309,0.002-21.463c-0.005-2.187,0.566-4.394,0.144-6.572c-0.524-2.699-0.492-5.421-0.546-8.201
				c-0.124-6.355-0.227-12.711-0.261-19.067c-0.016-2.867-2.27-4.367-4.488-4.367c-1.244,0-2.427,0.472-3.247,1.296
				c-0.797,0.801-1.215,1.869-1.208,3.087c0.05,8.938,0.456,17.867,0.69,26.8c0.116,4.439-0.005,8.897,0.166,13.331
				c0.11,2.871,1.266,5.441,1.315,8.34c0.08,4.724,0.716,10.111-0.416,14.721c-1.034,4.212-0.555,8.439-0.576,12.769
				c-0.006,1.218,0.412,2.285,1.209,3.087C720.466,478.973,721.65,479.446,722.895,479.446z"/>
			<path fill="#B79D55" d="M723.348,499.417c2.214,0,4.474-1.496,4.511-4.354c0.013-0.979,0.093-1.952,0.177-2.981
				c0.086-1.039,0.174-2.113,0.188-3.199c0.016-1.22-0.395-2.29-1.188-3.094c-0.814-0.826-1.997-1.3-3.244-1.3
				c-2.214,0-4.473,1.496-4.51,4.355c-0.012,0.982-0.092,1.958-0.178,2.991c-0.086,1.035-0.174,2.105-0.188,3.188
				c-0.016,1.22,0.395,2.29,1.188,3.094C720.919,498.944,722.101,499.417,723.348,499.417z"/>
			<path fill="#B79D55" d="M886.783,306.552c3.835,0.139,7.739,0.477,11.516,0.803c4.999,0.433,10.168,0.88,15.312,0.88
				c0.354,0,0.706-0.002,1.061-0.006c2.847-0.035,4.368-2.364,4.355-4.538c-0.022-3.896-4.041-4.767-7.226-4.873
				c-3.816-0.128-7.51,0.413-11.354-0.039c-4.521-0.531-9.001-1.003-13.557-1.167l-0.185-0.003c-2.731,0-4.2,2.151-4.238,4.276
				C882.427,304.071,883.926,306.449,886.783,306.552z"/>
			<path fill="#B79D55" d="M871.979,307.284c2.875-0.012,4.375-2.27,4.37-4.493c-0.005-2.212-1.505-4.451-4.382-4.451l-0.672,0.002
				c-4.346,0-8.774-0.176-13.058-0.346c-4.067-0.161-8.273-0.328-12.428-0.346l-0.318-0.001c-8.656,0-17.23,1.568-25.872,1.629
				c-2.845,0.02-4.372,2.338-4.364,4.509c0.008,2.203,1.504,4.434,4.349,4.434h0.037c4.55-0.031,9.122-0.434,13.544-0.823
				c4.145-0.365,8.432-0.742,12.641-0.805c4.534-0.068,9.173,0.139,13.657,0.338c3.917,0.175,7.968,0.354,11.97,0.354
				L871.979,307.284z"/>
			<path fill="#B79D55" d="M577.33,299.497c-2.847,0.043-4.366,2.377-4.35,4.552c0.016,2.184,1.505,4.394,4.395,4.394
				c3.949-0.06,7.852-0.595,11.627-1.112c1.16-0.159,2.322-0.318,3.486-0.465c1.46-0.184,2.932-0.272,4.502-0.272
				c3.77,0,7.516,0.534,11.002,1.11c6.318,1.043,12.578,1.177,17.326,1.177c2.717,0,5.469-0.051,8.132-0.101
				c1.791-0.033,3.58-0.066,5.364-0.085c2.846-0.028,4.369-2.353,4.359-4.525c-0.012-2.194-1.504-4.416-4.39-4.416
				c-1.603,0.017-3.208,0.043-4.813,0.068c-2.621,0.043-5.244,0.086-7.863,0.086c-4.947,0-11.453-0.137-17.906-1.202
				c-4.411-0.729-7.844-1.054-11.131-1.054c-1.02,0-2.034,0.033-3.018,0.099c-2.483,0.165-4.955,0.508-7.345,0.838
				C583.637,299.012,580.462,299.452,577.33,299.497z"/>
			<path fill="#B79D55" d="M846.201,433.034c1.349,1.646,2.707,3.285,4.109,4.886c1.461,1.665,2.501,3.474,4.066,5.053
				c0.86,0.866,1.915,1.325,3.05,1.325c1.783,0,3.531-1.207,4.25-2.935c0.687-1.646,0.324-3.405-0.966-4.706
				c-3.003-3.026-5.964-6.205-8.828-9.279c-2.9-3.113-5.899-6.333-8.957-9.413c-0.861-0.867-1.915-1.326-3.05-1.326
				c-1.782,0-3.53,1.207-4.25,2.934c-0.686,1.646-0.324,3.405,0.966,4.706c1.395,1.406,2.701,3.111,4.32,4.236
				c1.515,1.051,3.024,1.747,4.226,3.22C845.492,432.167,845.845,432.601,846.201,433.034z"/>
			<path fill="#B79D55" d="M828.578,415.317c1.834,0,3.608-1.229,4.314-2.988c0.659-1.64,0.264-3.375-1.058-4.641
				c-8.969-8.602-16.345-15.851-22.827-24.274c-7.013-9.111-15.442-17.469-22.793-24.587c-0.861-0.834-1.908-1.274-3.028-1.274
				c-1.823,0-3.592,1.224-4.301,2.977c-0.664,1.642-0.274,3.382,1.041,4.654c3.968,3.84,7.9,7.718,11.689,11.734
				c2.025,2.146,3.904,4.44,5.947,6.564c1.364,1.418,2.697,2.428,3.802,4.1c6.578,9.952,15.623,18.257,24.192,26.475
				C826.418,414.881,827.462,415.317,828.578,415.317z"/>
			<path fill="#B79D55" d="M645.401,233.206c1.662,1.772,3.263,3.611,5.014,5.323c3.069,3.001,6.111,6.029,9.073,9.136
				c0.857,0.899,1.916,1.375,3.064,1.375c1.771,0,3.46-1.162,4.201-2.893c0.707-1.65,0.373-3.429-0.894-4.756
				c-4.687-4.915-9.626-9.692-14.403-14.312c-6.704-6.485-13.637-13.191-19.916-20.325c-0.836-0.951-1.934-1.475-3.088-1.475
				c-1.695,0-3.346,1.129-4.105,2.809c-0.75,1.658-0.473,3.472,0.74,4.851c3.762,4.275,7.837,8.239,11.7,12.417
				c2.032,2.197,4.576,3.817,6.712,5.9C644.149,231.889,644.779,232.542,645.401,233.206z"/>
			<path fill="#B79D55" d="M587.449,174.31c3.678,4.047,7.482,8.231,11.478,12.141c2.503,2.449,5.261,4.622,7.928,6.724
				c2.877,2.267,5.852,4.61,8.429,7.255c0.859,0.882,1.917,1.349,3.058,1.349c1.792,0,3.491-1.171,4.226-2.913
				c0.695-1.648,0.348-3.417-0.933-4.731c-2.928-3.005-6.217-5.617-9.397-8.144c-1.951-1.549-3.969-3.151-5.859-4.812
				c-4.167-3.663-7.979-7.95-11.664-12.097c-1.369-1.54-2.735-3.077-4.118-4.583c-0.854-0.932-1.919-1.424-3.079-1.424
				c-1.734,0-3.402,1.146-4.152,2.853c-0.729,1.655-0.421,3.45,0.82,4.802C585.275,171.918,586.363,173.114,587.449,174.31z"/>
			<path fill="#B79D55" d="M587.471,443.425c1.136,0,2.19-0.46,3.05-1.331c2.133-2.159,4.175-4.445,6.148-6.656
				c1.948-2.182,3.963-4.438,6.041-6.542c1.287-1.303,1.646-3.063,0.959-4.71c-0.721-1.726-2.467-2.93-4.246-2.93
				c-1.135,0-2.189,0.46-3.051,1.331c-2.535,2.562-4.419,5.908-7.152,8.24c-1.798,1.534-3.356,3.255-5.036,4.956
				c-1.288,1.304-1.646,3.065-0.959,4.712C583.947,442.22,585.693,443.425,587.471,443.425z"/>
			<path fill="#B79D55" d="M829.699,202.917c1.158,0,2.223-0.49,3.08-1.418c2.354-2.556,4.384-5.379,6.347-8.108
				c2.093-2.911,4.257-5.922,6.768-8.516c2.43-2.512,5.312-4.465,8.363-6.533c2.873-1.947,5.843-3.961,8.405-6.485
				c1.304-1.286,1.68-3.035,1.006-4.678c-0.854-2.083-3.251-3.45-5.464-2.786c-1.961,0.588-3.514,2.664-4.916,4.079
				c-3.042,3.072-7.087,5.276-10.862,7.327c-2.044,1.11-3.079,2.754-4.573,4.472c-2.098,2.413-3.972,4.965-5.803,7.583
				c-1.774,2.537-3.608,5.161-5.683,7.411c-1.243,1.349-1.553,3.142-0.827,4.796C826.288,201.768,827.959,202.917,829.699,202.917z"
				/>
			<path fill="#B79D55" d="M754.492,214.265c-0.966,3.366-1.966,6.848-3.294,10.138c-0.536,1.327-0.433,2.651,0.293,3.727
				c0.79,1.17,2.259,1.897,3.835,1.897c1.977,0,3.655-1.119,4.382-2.92c1.351-3.339,2.324-6.793,3.267-10.134
				c0.766-2.716,1.532-5.435,2.496-8.088c0.68-1.873,0.85-3.875,1.979-5.567c1.325-1.987,2.411-4.127,3.534-6.289
				c1.563-3.011,3.181-6.123,4.538-9.333c0.624-1.478,0.475-3.091-0.41-4.426c-0.896-1.352-2.442-2.225-3.939-2.225
				c-1.563,0-2.889,0.928-3.546,2.481c-1.124,2.658-2.407,5.244-3.715,7.814c-0.967,1.899-1.258,4.005-2.543,5.725
				c-1.357,1.817-2.255,3.854-3.151,5.973C756.657,206.723,755.556,210.557,754.492,214.265z"/>
			<path fill="#B79D55" d="M672.066,425.251c1.972,0,3.656-1.108,4.398-2.894c1.964-4.727,3.574-10.073,6.264-14.434
				c2.162-3.507,3.547-7.305,5.657-10.843c0.853-1.431,1.074-3.066,1.899-4.493c1.622-2.806,3.224-5.624,4.503-8.607
				c0.633-1.476,0.49-3.088-0.39-4.424c-0.893-1.354-2.441-2.229-3.945-2.229c-1.562,0-2.89,0.923-3.554,2.47
				c-1.403,3.271-3.257,6.391-5.049,9.407c-1.84,3.097-3.742,6.299-5.223,9.747c-2.498,5.825-4.969,11.774-7.356,17.528
				l-1.307,3.146c-0.55,1.323-0.458,2.644,0.261,3.72C669.007,424.521,670.48,425.251,672.066,425.251z"/>
			<path fill="#B79D55" d="M844.811,253.608c-0.407-2.081-1.962-3.479-3.868-3.479c-0.545,0-1.104,0.115-1.661,0.342
				c-3.309,1.348-6.762,2.521-10.101,3.655c-3.598,1.223-7.575,1.66-11.018,3.235c-3.497,1.6-6.387,3.96-9.729,5.88
				c-3.051,1.751-6.206,3.562-9.488,4.959c-1.836,0.783-2.774,2.504-2.391,4.384c0.454,2.222,2.479,3.896,4.711,3.896
				c0.628,0,1.251-0.13,1.854-0.387c3.333-1.42,6.443-3.227,9.452-4.974c2.636-1.53,5.36-3.113,8.171-4.39
				c3.773-1.713,7.81-3.053,11.714-4.349c3.145-1.044,6.396-2.123,9.536-3.402C844.103,258.122,845.261,255.913,844.811,253.608z"/>
			<path fill="#B79D55" d="M620.517,341.806c-0.537,0-1.088,0.11-1.637,0.328c-2.551,1.015-5.251,1.826-7.861,2.611
				c-2.669,0.803-5.428,1.632-8.096,2.692c-2.116,0.84-3.287,3.034-2.847,5.335c0.401,2.101,1.968,3.513,3.897,3.513
				c0.537,0,1.088-0.11,1.637-0.329c2.545-1.011,5.24-1.821,7.846-2.605c2.674-0.804,5.438-1.636,8.111-2.698
				c2.115-0.841,3.285-3.035,2.845-5.336C624.011,343.216,622.445,341.806,620.517,341.806z"/>
			<path fill="#B79D55" d="M633.119,334.136c-2.502,0.915-3.276,3.276-2.934,5.21c0.377,2.134,2.02,3.624,3.992,3.624l0,0
				c0.509,0,1.031-0.097,1.551-0.287c1.48-0.541,3.091-0.66,4.797-0.786c1.842-0.136,3.746-0.276,5.633-0.966
				c2.502-0.912,3.275-3.272,2.934-5.207c-0.377-2.136-2.02-3.628-3.994-3.628c-0.508,0-1.029,0.096-1.549,0.286
				c-1.479,0.54-3.088,0.659-4.791,0.785C636.913,333.303,635.005,333.444,633.119,334.136z"/>
			<path fill="#B79D55" d="M607.269,249.354c-0.604-0.258-1.229-0.389-1.858-0.389c-2.23,0-4.255,1.675-4.709,3.895
				c-0.385,1.88,0.553,3.601,2.388,4.385c4.945,2.111,9.806,4.667,14.506,7.139c4.75,2.497,9.66,5.079,14.713,7.237
				c0.604,0.258,1.229,0.389,1.858,0.389c0.001,0,0.001,0,0.001,0c2.229,0,4.252-1.673,4.707-3.893
				c0.385-1.88-0.553-3.603-2.389-4.387c-4.943-2.111-9.801-4.666-14.498-7.136C617.236,254.096,612.324,251.512,607.269,249.354z"
				/>
			<path fill="#B79D55" d="M766.649,423.228c0.739,1.789,2.423,2.9,4.396,2.901c1.582,0,3.053-0.729,3.839-1.902
				c0.72-1.076,0.815-2.398,0.27-3.724c-2.074-5.03-4.116-10.074-6.157-15.118c-1.994-4.927-3.988-9.854-6.013-14.768
				c-0.738-1.789-2.422-2.9-4.396-2.9c-1.584,0-3.056,0.729-3.842,1.903c-0.72,1.076-0.815,2.397-0.27,3.722
				c2.294,5.562,5.186,10.744,6.555,16.65c0.469,2.024,1.227,3.576,2.216,5.372C764.622,417.86,765.563,420.6,766.649,423.228z"/>
			<path fill="#B79D55" d="M677.062,202.293c0.458,1.674,0.787,3.39,1.079,4.976c0.715,3.881,2.534,7.84,4.005,11.491
				c0.728,1.802,2.406,2.922,4.384,2.922c1.575,0,3.044-0.727,3.835-1.897c0.726-1.075,0.83-2.399,0.295-3.729
				c-1.859-4.612-3.417-9.339-4.94-14.07c-0.637-1.979-1.294-3.571-2.322-5.324c-1.011-1.725-0.782-3.749-1.266-5.647
				c-0.637-2.498-1.767-4.984-2.729-7.371c-0.726-1.804-2.405-2.924-4.382-2.924c-1.576,0-3.045,0.728-3.836,1.897
				c-0.726,1.075-0.83,2.399-0.295,3.728c1.474,3.656,2.361,7.804,4.316,11.225C676.016,198.987,676.604,200.62,677.062,202.293z"/>
			<path fill="#B79D55" d="M691.817,168.973c0.019,0.454,0.033,0.908,0.042,1.362c0.048,2.541,0.001,5.12,0.754,7.579
				c0.497,1.622,1.308,3.095,1.731,4.746c0.6,2.341,1.387,4.57,4.255,4.57c1.433,0,2.834-0.656,3.751-1.756
				c2.371-2.848,0.248-7.681-0.918-10.676c-1.423-3.654-0.465-7.823-1.034-11.663c-0.552-3.727-1.135-7.449-1.815-11.154
				c-0.377-2.053-1.938-3.379-3.978-3.379c-1.433,0-2.835,0.656-3.752,1.757c-0.865,1.04-1.203,2.37-0.951,3.745
				C690.801,159.013,691.608,163.979,691.817,168.973z"/>
			<path fill="#B79D55" d="M697.273,192.852c-0.854,1.046-1.166,2.378-0.883,3.753c0.754,3.658,1.551,7.262,2.227,10.904
				c0.728,3.923,1.844,8.271,3.425,11.952c0.735,1.711,1.403,4.043,3.138,5.003c4.986,2.759,8.168-4.295,6.309-8.141
				c-0.756-1.563-2.038-2.535-2.572-4.256c-0.869-2.798-1.256-5.859-1.849-8.73c-0.616-2.984-1.395-5.933-2.009-8.918
				c-0.417-2.029-1.998-3.34-4.029-3.34C699.582,191.08,698.177,191.743,697.273,192.852z"/>
			<path fill="#B79D55" d="M748.467,420.177c0.861-1.042,1.19-2.374,0.926-3.749c-0.674-3.507-1.119-7.231-2.169-10.646
				c-0.896-2.916-2.597-5.527-2.398-8.696c0.243-3.905-1.034-7.838-1.774-11.67c-0.395-2.043-1.965-3.363-4-3.363
				c-1.438,0-2.842,0.659-3.753,1.763c-0.861,1.043-1.189,2.374-0.925,3.748c1.103,5.73,2.507,11.406,4.251,16.976
				c0.701,2.237,1.123,3.843,0.927,6.152c-0.222,2.623,0.671,5.321,1.164,7.884c0.394,2.043,1.963,3.364,3.999,3.364
				C746.153,421.94,747.556,421.281,748.467,420.177z"/>
			<path fill="#B79D55" d="M746.462,443.002c0.169,0.843,0.326,1.684,0.502,2.5c0.665,3.09,1.711,6.09,2.351,9.193
				c0.418,2.028,1.999,3.339,4.029,3.339c1.447,0,2.852-0.662,3.757-1.771c0.853-1.046,1.167-2.378,0.885-3.753
				c-0.832-4.045-2.019-8.029-3.166-11.884c-1.131-3.798-2.301-7.726-3.106-11.648c-0.416-2.029-1.997-3.34-4.027-3.34
				c-1.447,0-2.852,0.662-3.757,1.771c-0.853,1.046-1.167,2.379-0.885,3.753c0.495,2.41,1.059,4.749,2.045,7.005
				C745.751,439.68,746.13,441.346,746.462,443.002z"/>
			<path fill="#B79D55" d="M800.981,187.229c0.691,0.405,1.433,0.61,2.203,0.61c1.474,0,2.91-0.787,3.843-2.104
				c0.503-0.709,1.394-1.383,2.256-2.034c0.213-0.16,0.422-0.318,0.626-0.478c1.613-1.264,2.808-2.505,3.759-3.904
				c0.633-0.93,0.837-2.083,0.574-3.246c-0.279-1.237-1.072-2.344-2.123-2.959c-0.68-0.397-1.443-0.608-2.209-0.608
				c-1.509,0-2.95,0.796-3.853,2.128c-0.501,0.736-1.396,1.419-2.261,2.078l-0.561,0.431c-1.627,1.27-2.795,2.46-3.787,3.858
				c-0.643,0.906-0.857,2.045-0.607,3.206C799.115,185.475,799.915,186.605,800.981,187.229z"/>
			<path fill="#B79D55" d="M773.091,223.339c0.785,1.47,2.475,2.457,4.205,2.457c0,0,0,0,0.001,0c1.5,0,2.852-0.736,3.71-2.021
				c3.264-4.89,6.875-9.675,10.368-14.303c2.668-3.534,5.426-7.188,8.024-10.881c0.933-1.326,1.07-2.854,0.376-4.189
				c-0.772-1.489-2.48-2.489-4.25-2.489c-1.485,0-2.838,0.713-3.711,1.954c-2.569,3.652-5.312,7.285-7.965,10.799
				c-3.52,4.661-7.158,9.481-10.467,14.442C772.481,220.458,772.375,222,773.091,223.339z"/>
			<path fill="#B79D55" d="M657.468,406.438c1.492,0,2.846-0.723,3.713-1.983c3.218-4.683,6.662-9.337,9.992-13.837
				c3.346-4.523,6.807-9.2,10.056-13.927c0.919-1.336,1.043-2.869,0.34-4.207c-0.778-1.48-2.479-2.475-4.231-2.475
				c-3.224,0-4.78,3.508-6.377,5.786c-2.425,3.461-3.861,7.308-6.608,10.566c-3.674,4.358-7.636,8.825-10.774,13.393
				c-0.919,1.337-1.043,2.871-0.34,4.209C654.016,405.443,655.716,406.438,657.468,406.438z"/>
			<path fill="#B79D55" d="M646.921,410.02c-1.508,0-2.858,0.75-3.706,2.057c-1.009,1.556-1.435,2.916-2.01,4.602
				c-0.609,1.788-1.888,3.42-2.712,5.122c-1.14,2.354-2.239,4.761-3.666,6.96c-0.883,1.361-0.972,2.91-0.244,4.25
				c0.793,1.46,2.475,2.44,4.186,2.44c1.508,0,2.858-0.75,3.707-2.058c1.771-2.731,3.062-5.692,4.309-8.557
				c1.256-2.881,2.44-5.601,4.078-8.126c0.883-1.361,0.972-2.91,0.244-4.25C650.314,411,648.631,410.02,646.921,410.02z"/>
			<path fill="#B79D55" d="M840.285,275.855c-2.213,0.405-3.564,2.171-3.363,4.395c0.192,2.117,1.868,4.368,4.598,4.368h0.001
				c0.289,0,0.586-0.027,0.88-0.081c5.371-0.981,10.892-1.709,16.229-2.412c5.376-0.709,10.934-1.441,16.379-2.437
				c2.212-0.404,3.562-2.17,3.36-4.395c-0.191-2.117-1.868-4.368-4.598-4.368c-0.29,0-0.587,0.027-0.881,0.081
				c-5.365,0.98-10.879,1.707-16.211,2.41C851.298,274.125,845.735,274.859,840.285,275.855z"/>
			<path fill="#B79D55" d="M828.802,278.714c-0.306,0-0.618,0.031-0.93,0.091c-3.788,0.735-7.615,1.563-11.316,2.364
				c-3.686,0.798-7.497,1.623-11.254,2.352c-2.212,0.43-3.554,2.217-3.339,4.447c0.201,2.094,1.867,4.318,4.56,4.318h0.001
				c0.306,0,0.618-0.031,0.929-0.091c3.799-0.736,7.636-1.566,11.346-2.37c3.677-0.795,7.479-1.618,11.226-2.345
				c2.212-0.429,3.554-2.217,3.34-4.448C833.163,280.94,831.496,278.714,828.802,278.714z"/>
			<path fill="#B79D55" d="M568.785,333.916c0.198,2.099,1.867,4.329,4.568,4.329c0.302,0,0.611-0.03,0.919-0.089
				c4.922-0.942,9.817-2.022,14.697-3.162c2.69-0.629,5.43-1.001,8.162-1.395c2.375-0.343,5.114-0.42,7.303-1.474
				c4.464-2.147,9.113-3.094,13.97-4.183c3.272-0.734,6.552-1.431,9.845-2.066c2.211-0.426,3.554-2.21,3.341-4.44
				c-0.335-3.508-3.415-4.373-6.434-4.1c-3.877,0.352-6.83,1.898-10.352,3.172c-1.794,0.648-3.908,0.815-5.765,1.376
				c-1.833,0.553-3.661,1.144-5.561,1.428c-2.386,0.355-4.778,0.207-7.168,0.674c-2.542,0.495-5.018,1.271-7.535,1.871
				c-5.524,1.316-11.07,2.555-16.647,3.623C569.917,329.903,568.573,331.686,568.785,333.916z"/>
			<path fill="#B79D55" d="M840.08,378.144c-1.831,0-3.465,1.308-4.066,3.253c-0.608,1.971,0.088,3.988,1.775,5.141
				c2.04,1.392,4.135,2.766,6.159,4.095c1.297,0.851,2.595,1.702,3.886,2.562c0.755,0.502,1.555,0.758,2.377,0.758
				c1.828,0,3.516-1.353,4.102-3.287c0.614-2.029-0.239-4.312-2.173-5.271c-0.889-0.441-1.652-0.454-2.522-1.08
				c-0.992-0.714-1.787-1.675-2.837-2.324c-1.477-0.911-2.857-2.077-4.3-3.062C841.719,378.408,840.912,378.144,840.08,378.144z"/>
			<path fill="#B79D55" d="M816.098,371.906c2.744,2.193,5.472,4.401,8.364,6.444c0.756,0.533,1.595,0.815,2.427,0.815
				c1.796,0,3.411-1.288,4.02-3.206c0.627-1.977-0.047-4.015-1.716-5.192c-1.985-1.4-3.797-2.882-5.98-3.948
				c-2.208-1.077-3.058-2.727-4.756-4.337c-2.042-1.937-4.583-3.567-6.9-5.153c-0.761-0.521-1.568-0.784-2.4-0.784
				c-1.83,0-3.463,1.306-4.064,3.25c-0.609,1.971,0.087,3.989,1.772,5.143c1.987,1.358,3.917,2.807,5.823,4.277
				C813.835,370.1,814.968,371.001,816.098,371.906z"/>
			<path fill="#B79D55" d="M653.212,261.071c1.809,0,3.43-1.295,4.035-3.223c1.544-4.909-3.934-5.682-6.637-8.024
				c-3.811-3.303-7.188-7.047-11.346-9.945c-0.754-0.526-1.59-0.804-2.418-0.804c-1.808,0-3.43,1.294-4.035,3.221
				c-0.621,1.974,0.062,4.006,1.738,5.176c2.777,1.937,5.441,4.163,8.018,6.317c2.625,2.195,5.34,4.465,8.227,6.479
				C651.548,260.792,652.384,261.071,653.212,261.071z"/>
			<path fill="#B79D55" d="M626.742,231.312c-4.575-3.084-9.324-6.039-13.918-8.897c-4.577-2.849-9.311-5.795-13.847-8.854
				c-0.758-0.511-1.562-0.77-2.388-0.77c-1.816,0-3.496,1.345-4.085,3.271c-1.224,4.003,2.423,6.303,5.629,7.592
				c1.804,0.726,3.98,1.028,5.59,2.146c1.64,1.141,2.507,2.928,4.249,3.923c1.512,0.864,3.369,1.129,4.808,2.105
				c0.961,0.652,1.634,1.662,2.542,2.396c2.354,1.9,4.836,4.217,7.768,5.149C627.928,240.915,630.856,234.085,626.742,231.312z"/>
			<path fill="#B79D55" d="M661.593,217.212c-0.704,1.338-0.582,2.872,0.335,4.21c1.76,2.566,3.883,4.81,5.937,6.979
				c2.059,2.174,4.003,4.228,5.62,6.586c0.866,1.264,2.218,1.988,3.712,1.989l0,0c1.75,0,3.449-0.994,4.229-2.473
				c0.705-1.338,0.584-2.873-0.334-4.211c-1.76-2.567-3.883-4.81-5.936-6.979c-2.059-2.175-4.003-4.228-5.621-6.587
				c-0.865-1.263-2.219-1.987-3.712-1.987C664.072,214.74,662.373,215.734,661.593,217.212z"/>
			<path fill="#B79D55" d="M631.576,173.293c0.471,0.549,0.952,1.086,1.446,1.61c2.783,2.947,4.648,6.519,6.915,9.85
				c2.885,4.239,5.723,8.628,8.469,12.871c2.213,3.423,4.502,6.961,6.807,10.41c0.858,1.283,2.211,2.019,3.711,2.02
				c1.73,0,3.422-0.987,4.207-2.457c1.586-2.969-1.727-6.068-2.831-8.663c-1.776-4.179-3.87-9.194-7.243-12.335
				c-3.423-3.188-5.706-6.951-8.439-10.729c-1.853-2.561-3.776-5.069-5.7-7.576c-1.967-2.563-4-5.213-5.912-7.868
				c-0.893-1.238-2.21-1.921-3.709-1.921c-1.788,0-3.504,1.006-4.271,2.504c-0.684,1.336-0.532,2.856,0.416,4.172
				C627.413,167.918,629.375,170.725,631.576,173.293z"/>
			<path fill="#B79D55" d="M806.005,436.671c0.723,0.715,1.453,1.425,2.188,2.133c1.586,1.528,3.06,3.051,3.649,5.221
				c0.507,1.862,0.807,3.205,2.623,4.271c2.342,1.374,5.47,0.958,6.839-1.621c0.711-1.338,0.596-2.877-0.314-4.221
				c-2.456-3.623-5.277-7.002-8.007-10.27c-2.68-3.209-5.45-6.527-7.82-10.021c-0.862-1.271-2.216-2.001-3.712-2.001
				c-1.743,0-3.439,0.991-4.221,2.467c-0.709,1.338-0.593,2.875,0.317,4.216C799.998,430.459,802.927,433.622,806.005,436.671z"/>
			<path fill="#B79D55" d="M757.13,155.617c0.091-0.822,0.092-1.621-0.075-2.351c-0.426-1.863-2.716-2.727-4.413-2.944
				c-2.077-0.268-3.85,1.015-4.266,3.125c-1.341,6.803-2.393,13.658-3.401,20.517c-0.242,1.642-0.69,3.391-0.686,5.053
				c0.009,3.142,0.372,5.682-0.369,8.817c-0.634,2.681-0.978,5.413-1.603,8.094c-1.041,4.459-2.988,8.753-4.664,12.995
				c-1.353,3.421-2.656,6.897-3.487,10.487c-0.319,1.373-0.034,2.709,0.801,3.761c0.891,1.12,2.297,1.789,3.764,1.789
				c2.019,0,3.623-1.292,4.087-3.292c0.904-3.901,2.31-7.554,3.797-11.422c0.417-1.084,0.835-2.17,1.24-3.26
				c1.919-5.151,2.757-10.568,3.566-15.808l0.063-0.408c0.518-3.331,1.538-6.57,1.595-9.92c0.06-3.515,0.263-7.035,1.37-10.398
				c1.007-3.06,1.082-6.571,1.634-9.742C756.347,159.195,756.94,157.354,757.13,155.617z"/>
			<path fill="#B79D55" d="M688.935,474.161L688.935,474.161c2.029,0,3.613-1.309,4.035-3.335c0.366-1.764,0.762-3.521,1.157-5.276
				c0.394-1.749,0.786-3.496,1.152-5.251c0.286-1.375-0.025-2.708-0.876-3.754c-0.904-1.11-2.309-1.773-3.758-1.773
				c-2.029,0-3.612,1.309-4.034,3.335c-0.366,1.758-0.761,3.51-1.155,5.261c-0.395,1.753-0.789,3.507-1.156,5.267
				c-0.285,1.374,0.025,2.707,0.877,3.753C686.08,473.498,687.486,474.161,688.935,474.161z"/>
			<path fill="#B79D55" d="M839.538,223.446c-0.799,0-1.579,0.235-2.32,0.699c-3.534,2.217-7.269,4.27-10.879,6.254
				c-2.916,1.603-5.493,3.267-8.132,5.248c-2.512,1.887-5.794,2.133-8.176,4.292c-2.761,2.502-6.508,4.259-9.679,6.21
				c-3.161,1.945-6.431,3.956-9.624,5.982c-1.721,1.093-2.465,3.062-1.896,5.021c0.574,1.976,2.288,3.355,4.17,3.355
				c0.803,0,1.588-0.239,2.332-0.711c3.053-1.937,6.192-3.859,9.229-5.719c2.449-1.5,4.948-2.923,7.514-4.217
				c1.986-1.003,3.209-2.074,4.867-3.459c2.409-2.013,5.131-3.608,7.881-5.104c5.698-3.098,11.475-6.021,16.987-9.478
				c1.726-1.082,2.477-3.045,1.914-5C843.154,224.833,841.432,223.446,839.538,223.446z"/>
			<path fill="#B79D55" d="M856.097,211.422c-2.599,0.878-5.371,1.01-7.89,2.57c-1.73,1.072-2.489,3.026-1.934,4.979
				c0.568,1.996,2.297,3.391,4.204,3.391c0.794,0,1.57-0.232,2.309-0.689c2.153-1.334,4.524-2.193,7.034-3.103
				c2.548-0.924,5.182-1.879,7.609-3.383c1.729-1.071,2.487-3.025,1.932-4.979c-1.666-5.851-7.399-2.345-10.539-0.134
				C857.951,210.69,857.035,211.105,856.097,211.422z"/>
			<path fill="#B79D55" d="M581.403,401.346c0.825,0,1.628-0.259,2.386-0.769c1.902-1.278,3.719-2.689,5.477-4.055
				c1.715-1.332,3.488-2.709,5.301-3.929c1.693-1.14,2.4-3.147,1.801-5.114c-0.589-1.929-2.27-3.274-4.088-3.274
				c-2.359,0-4.431,2.396-6.391,3.513c-2.51,1.43-4.392,3.64-6.771,5.238c-1.695,1.14-2.401,3.146-1.802,5.114
				C577.903,400,579.583,401.345,581.403,401.346z"/>
			<path fill="#B79D55" d="M605.255,386.137c0.84,0,1.654-0.271,2.42-0.807c5.669-3.965,11.391-7.85,17.154-11.676
				c2.774-1.842,5.305-4.018,8.049-5.901c2.862-1.966,6.049-2.977,9-4.691c4.43-2.574,9.011-5.236,13.353-8.178
				c1.688-1.146,2.39-3.157,1.786-5.127c-0.6-1.952-2.238-3.264-4.077-3.264c-0.829,0-1.634,0.261-2.393,0.775
				c-2.626,1.779-5.311,3.841-8.385,4.732c-3.13,0.907-5.51,2.751-8.21,4.549c-2.558,1.704-4.964,3.339-7.354,5.278
				c-1.236,1.002-2.624,1.629-3.962,2.496c-2.211,1.433-4.405,2.891-6.587,4.365c-4.364,2.949-8.681,5.968-12.998,8.985
				l-0.092,0.064c-1.676,1.172-2.356,3.204-1.734,5.179C601.83,384.843,603.451,386.137,605.255,386.137z"/>
			<path fill="#B79D55" d="M859.551,325.902c-5.164-0.911-11.246-0.315-16.207-1.909c-4.006-1.288-8.253-0.248-12.386-1.419
				c-4-1.134-8.146-2.059-12.194-3.163c-3.771-1.03-7.672-2.095-11.562-2.93c-0.341-0.073-0.683-0.11-1.017-0.11
				c-2.626,0-4.273,2.179-4.491,4.229c-0.237,2.244,1.087,4.071,3.298,4.546c4.521,0.971,8.491,2.411,12.769,3.974
				c4.023,1.469,9.061,1.52,13.098,2.391c4.816,1.04,9.754,1.411,14.528,1.77c3.983,0.3,8.103,0.609,12.065,1.309
				c0.284,0.05,0.57,0.075,0.851,0.075c2.652,0,4.433-2.235,4.622-4.396C863.12,328.045,861.763,326.292,859.551,325.902z"/>
			<path fill="#B79D55" d="M872.444,328.406c-2.648,0-4.303,2.194-4.516,4.259c-0.229,2.24,1.102,4.054,3.313,4.514
				c2.834,0.588,5.66,1.214,8.487,1.839c2.861,0.633,5.723,1.266,8.591,1.861c0.331,0.068,0.664,0.104,0.988,0.104
				c0.001,0,0,0,0.001,0c2.646,0,4.301-2.193,4.513-4.258c0.231-2.24-1.1-4.055-3.312-4.515c-2.868-0.594-5.727-1.227-8.584-1.859
				c-2.829-0.626-5.658-1.252-8.495-1.841C873.101,328.441,872.768,328.406,872.444,328.406z"/>
			<path fill="#B79D55" d="M556.25,273.09c4.694,1.011,9.408,2.357,13.967,3.659c4.612,1.317,9.381,2.68,14.178,3.712
				c0.342,0.074,0.686,0.111,1.021,0.111l0,0c2.622,0,4.269-2.177,4.486-4.225c0.238-2.246-1.086-4.074-3.296-4.549
				c-4.7-1.011-9.419-2.359-13.983-3.663c-4.606-1.316-9.37-2.678-14.16-3.709c-0.343-0.073-0.686-0.111-1.021-0.111
				c-2.621,0-4.268,2.177-4.486,4.224C552.716,270.786,554.041,272.614,556.25,273.09z"/>
			<path fill="#B79D55" d="M728.171,178.508c-0.055-0.638-0.113-1.274-0.176-1.91c-0.23-2.35-1.121-4.293-1.083-6.704
				c0.054-3.34,0.173-6.678,0.045-10.018c-0.222-5.832-0.463-11.658-0.553-17.494c-0.044-2.856-2.306-4.351-4.517-4.351
				c-1.247,0-2.43,0.474-3.242,1.3c-0.793,0.805-1.202,1.875-1.184,3.096c0.083,5.472,0.097,10.982,0.464,16.442
				c0.294,4.372,0.034,8.791,0.364,13.148c0.111,1.47,0.759,2.744,0.923,4.222c0.225,2.026,0.241,4.086,0.24,6.122
				c0,3.296-0.003,6.592,0,9.888c0.002,2.683-0.675,5.257-1.114,7.918c-0.58,3.502-1.18,7.123-1.291,10.823
				c-0.036,1.225,0.36,2.299,1.146,3.108c0.806,0.831,1.986,1.307,3.236,1.308c2.201,0,4.476-1.486,4.562-4.328
				c0.105-3.562,0.666-6.993,1.259-10.626c0.269-1.648,0.547-3.353,0.774-5.052C728.778,189.824,728.649,184.12,728.171,178.508z"/>
			<path fill="#B79D55" d="M822.535,207.154c-0.713-1.742-2.473-2.958-4.278-2.958c-1.126,0-2.177,0.448-3.038,1.297
				c-4.677,4.606-10.039,9.395-13.854,14.613c-0.954,1.305-2.374,2.476-3.504,3.651c-3.648,3.794-7.808,7.236-11.829,10.565
				c-2.334,1.931-4.746,3.928-7.049,5.983c-1.363,1.216-1.806,2.915-1.185,4.545c0.688,1.805,2.5,3.065,4.408,3.065
				c1.087,0,2.116-0.404,2.975-1.171c2.688-2.4,6.69-4.688,9.195-7.52c2.941-3.325,6.687-6.003,9.832-9.171
				c2.188-2.202,4.318-4.461,6.424-6.742c1.716-1.857,2.329-3.841,4.503-5.222c2.403-1.528,4.346-4.244,6.392-6.26
				C822.831,210.546,823.208,208.798,822.535,207.154z"/>
			<path fill="#B79D55" d="M641.347,282.009c-3.432-0.63-6.926-1.069-10.306-1.495c-3.583-0.45-7.288-0.916-10.872-1.606
				c-3.728-0.721-7.471-1.812-11.091-2.865c-3.117-0.908-6.341-1.848-9.585-2.563c-0.35-0.077-0.701-0.116-1.044-0.116
				c-2.604,0-4.246,2.164-4.468,4.2c-0.246,2.249,1.074,4.087,3.283,4.575c7.347,1.622,14.947,2.979,22.139,5.446
				c6.4,2.195,13.115,1.873,19.82,3.106c0.297,0.055,0.595,0.082,0.887,0.082c2.727,0,4.402-2.248,4.595-4.363
				C644.909,284.184,643.558,282.416,641.347,282.009z"/>
			<path fill="#B79D55" d="M842.066,350.123c-3.271-1.4-6.407-3.221-9.44-4.981c-2.516-1.461-4.959-2.983-7.716-3.871
				c-2.764-0.891-5.094-2.916-7.775-4.086c-1.923-0.839-4.04-1.145-5.987-1.903c-2.995-1.168-6.093-2.375-9.106-3.621
				c-0.562-0.232-1.127-0.351-1.678-0.351c-1.892,0-3.438,1.39-3.849,3.456c-0.458,2.307,0.693,4.525,2.799,5.396
				c2.709,1.12,5.506,2.015,8.202,3.164c2.458,1.047,4.674,2.619,7.179,3.539c1.693,0.621,3.475,0.916,5.15,1.605
				c2.833,1.165,5.49,2.818,8.138,4.347c3.157,1.821,6.421,3.705,9.903,5.196c0.605,0.259,1.231,0.391,1.861,0.391
				c2.228,0,4.25-1.673,4.705-3.892C844.837,352.63,843.901,350.908,842.066,350.123z"/>
			<path fill="#B79D55" d="M710.669,384.285c-0.924-1.094-2.326-1.746-3.748-1.746c-2.045,0-3.592,1.336-3.94,3.406
				c-1.326,7.918-3.144,18.361-5.45,28.92c-0.996,4.555-2.57,9.062-4.092,13.422c-1.678,4.807-3.413,9.776-4.432,14.93
				c-0.271,1.374,0.053,2.706,0.91,3.75c0.908,1.105,2.312,1.766,3.754,1.766l0,0c2.033,0,3.607-1.316,4.011-3.354
				c1.023-5.188,2.79-10.297,4.497-15.238c1.268-3.664,2.576-7.454,3.596-11.295c2.219-8.358,3.643-17.073,5.02-25.501
				c0.291-1.778,0.581-3.554,0.878-5.323C711.902,386.647,711.546,385.32,710.669,384.285z"/>
			<path fill="#B79D55" d="M799.395,411.399c-2.899-4.861-6.21-9.521-9.412-14.026c-1.279-1.8-2.56-3.601-3.815-5.417
				c-2.455-3.551-4.481-7.502-6.441-11.323c-1.554-3.029-3.16-6.162-4.992-9.129c-0.832-1.345-2.181-2.116-3.701-2.116
				c-1.705,0-3.335,0.947-4.151,2.413c-0.747,1.341-0.686,2.901,0.167,4.28c1.876,3.037,3.562,6.278,5.193,9.413
				c1.196,2.299,2.647,4.461,3.758,6.806c1.11,2.342,1.856,4.844,3.244,7.055c1.947,3.104,4.979,5.509,7.116,8.532
				c1.857,2.629,3.679,5.286,5.329,8.051c0.816,1.371,2.162,2.158,3.69,2.158c1.679,0,3.298-0.938,4.123-2.391
				C800.265,414.363,800.226,412.794,799.395,411.399z"/>
			<path fill="#B79D55" d="M654.137,373.56c-0.716-1.735-2.47-2.947-4.266-2.947c-3.823,0-6.098,4.831-8.023,7.464
				c-1.189,1.627-3.124,2.625-4.638,3.927c-1.752,1.507-3.395,3.132-5,4.793c-8.464,8.757-17.137,17.452-25.431,26.314
				c-1.253,1.339-1.573,3.125-0.856,4.777c0.746,1.719,2.425,2.873,4.178,2.873c1.154,0,2.217-0.483,3.072-1.399
				c3.612-3.866,7.252-7.707,10.908-11.531c3.656-3.824,8.8-6.675,11.79-11.056c2.849-4.173,6.325-7.562,9.893-11.146
				c2.454-2.466,4.916-4.925,7.382-7.378C654.445,376.958,654.816,375.205,654.137,373.56z"/>
			<path fill="#B79D55" d="M563.373,297.996c-2.684,0.05-5.436,0.074-8.412,0.074c-7.633,0-15.398-0.168-22.91-0.33l-0.975-0.021
				c-2.789,0-4.271,2.19-4.294,4.354c-0.024,2.179,1.489,4.527,4.341,4.589l0.957,0.021c3.435,0.075,6.914,0.308,10.348,0.202
				c2.641-0.081,5.263-0.516,7.92-0.519c2.282-0.002,4.566-0.436,6.799,0.174c2.068,0.564,4.103,0.437,6.282,0.396
				c2.85-0.054,4.365-2.396,4.346-4.574C567.753,300.193,566.269,297.996,563.373,297.996z"/>
		</g>
		<g>
			<g>
				<path fill="#B79D55" d="M1299.671,559.273c0.021,0.239,0.435,0.624,0.344,0.591
					C1299.839,559.864,1299.671,559.273,1299.671,559.273z"/>
			</g>
			<g>
				<path fill="#B79D55" d="M933.35,725.647c-2.528,3.365-6.175,5.652-8.869,8.869c-2.158,2.576-4.186,6.287-8.089,4.572
					c-3.305-1.451-4.275-5.213-3.976-8.465c0.435-4.768,0.901-9.992,2.266-14.584c1.012-3.4,2.438-6.658,3.466-10.051
					c3.872-12.746,9.599-24.916,13.646-37.601c3.393-10.66,7.131-22.771,9.535-34.896c2.414-12.196,3.314-24.668-0.05-35.951
					c-3.811-12.756-13.175-20.361-24.061-23.304c-10.753-2.905-23.779-2.231-34.527,2.236c-6.333,2.631-12.33,8.212-17.59,12.557
					c1.097-0.902-4.38-5.923-5.064-6.364c-2.372-1.541-5.24-2.319-8.066-2.186c-7.816,0.359-10.587,7.087-13.455,13.32
					c-4.35,9.452-5.529,19.276-7.924,29.284c-1.902,7.956-4.324,15.781-8.075,23.072c-3.939,7.66-6.214,15.924-9.713,23.765
					c-4.663,10.455-8.952,21.132-14.981,30.904c-8.434,13.648-17.853,27.037-29.155,38.459
					c-8.306,8.396-18.845,16.088-31.155,16.145c-3.926,0.016-10.756-1.205-13.829-3.584c-4.257-3.291-4.636-11.527-5.354-16.256
					c-0.908-5.984-0.807-12.066-0.767-18.096c-0.007-0.203-0.633-1.062-0.633-1.266c4.059-2.756,8.977-5.527,12.366-8.463
					c8.854-7.659,16.203-16.955,24.519-25.187c8.224-8.142,17.938-17.093,26.106-27.21c8.209-10.17,16.383-20.646,19.072-32.449
					c3.176-13.919-3.729-24.722-13.532-30.746c-9.562-5.873-23.09-8.542-34.676-4.544c-12.955,4.469-22.677,14.874-30.572,26.066
					c-7.841,11.122-14.353,23.842-18.839,35.729c-5.131,13.586-9.398,28.027-11.471,42.609c-0.693,0.152-0.221-0.558-0.913-0.434
					c1.061-0.188-3.888-0.209-5.599-0.628c-3.238-0.808-7.673-1.192-10.475-3.05c1.964-6.413,6.22-12.632,7.856-19.043
					c2.347-9.228,3.015-20.948,4.563-32.187c1.559-11.309,1.681-22.026-2.51-31.357c-6.698-14.907-25.954-9.997-35.626-2.581
					c-12.617,9.676-15.208,29.998-16.208,44.74c-1.011,14.818,0.822,32.057,8.603,45.021c0.66,1.103,0.75,2.278,1.518,3.351
					c-1.081,2.918-1.728,5.863-2.888,8.75c-5.339,13.328-12.529,25.76-20.523,37.703c-5.007,7.484-10.368,16.541-18.042,21.629
					c-5.297,3.51-14.289,6.822-18.203-0.049c-4.435-7.789-0.836-16.498,0.032-24.68c1.105-10.432,0.985-19.74,3.379-30.402
					c3.415-15.223,8.675-30.105,13.233-45.104c4.558-14.993,10.187-29.629,15.639-44.246c6.339-17.002-22.078-25.684-28.363-8.832
					c-4.801,12.862-9.395,26.095-13.711,39.435c-3.831,11.831-7.027,24.17-9.016,36.448c-1.495,9.268-5.918,16.953-9.168,25.684
					c-1.708,4.582-3.669,9.092-6.096,13.342c-8.264,14.477-17.61,29.027-28.932,41.301c-3.157,3.42-7.27,6.67-10.536,9.156
					c0-0.035-0.348-0.76-0.343-0.793c-0.258-11.439,0.671-21.764,2.362-31.969c1.705-10.295,4.781-20.297,7.145-31.322
					c3.135-14.615,5.966-29.291,9.647-43.783c3.681-14.492,7.155-29.047,11.138-43.448c3.818-13.813,8.462-27.389,12.477-41.153
					c4.014-13.76,7.03-27.823,11.248-41.52c4.217-13.704,8.669-27.341,13.101-40.966c5.608-17.25-20.637-25.229-26.224-8.062
					c-3.756,11.531-8.034,22.905-11.622,34.495c-3.585,11.59-7.47,23.097-10.913,34.73c-3.447,11.63-6.967,23.254-10.293,34.917
					c-2.64,9.238-3.96,18.965-6.616,28.308c-0.726-0.954-1.908-1.911-2.71-2.827c-8.358-9.502-20.59-14.638-32.792-15.672
					c-2.64-0.224-5.3-0.206-7.938,0.041c-4.785,0.448-9.48,1.62-13.958,3.356c-4.261,1.652-8.553,3.302-12.575,5.504
					c-1.8,0.985-3.83,1.262-5.697,2.134c-1.392,0.65-1.978,1.779-3.148,2.595c-1.62,1.13-3.498,1.842-5.099,3.07
					c-1.604,1.229-3.092,2.601-4.521,4.025c-2.951,2.941-6.629,3.728-10.5,5.066c-11.072,3.831-22.793,5.247-34.302,7.322
					c-11.111,2.002-22.803,4.979-34.026,6.203c4.202-17.53,9.04-35.415,13.691-52.815c3.866-14.476,7.113-29.156,11.259-43.573
					c4.144-14.407,9.612-28.436,14.088-42.745c4.479-14.316,8.256-28.872,13.117-43.042c3.068-8.941-3.315-17.095-12.125-17.713
					c-14.175-0.987-26.636,2.268-37.54,8.561c-11.058,6.381-20.98,15.372-29.044,25.995c-7.935,10.456-12.818,23.108-18.212,34.535
					c-5.164,10.935-12.196,21.08-16.473,32.388c-4.269,11.295-5.707,23.593-9.366,35.129c-3.654,11.514-7.456,22.962-10.772,34.584
					c-3.324,11.635-7.536,22.918-10.796,34.532c-12.469,0.611-24.764,2.582-37.219,3.407c-14.214,0.942-35.461-1.475-47.075,8.527
					c-13.048,11.229,3.846,30.354,17.282,22.161c0.498-0.188,1.02-0.38,1.408-0.481c3.125-0.817,6.397-0.864,9.595-1.295
					c0.555-0.077,3.296-1.595,3.899-1.673c1.798-0.172,3.59-0.609,5.388-0.758c5.4-0.451,10.835-0.824,16.241-1.15
					c7.461-0.449,16.092-0.213,23.553-0.593c-3.511,12.13-9.518,24.253-13.304,36.339c-3.791,12.105-7.644,24.107-12.048,35.932
					c-4.438,11.91-8.842,23.705-14.245,35.092c-5.44,11.459-10.56,23.047-17.329,33.73c-5.615,8.863-11.44,17.443-18.269,24.697
					c-7.127,7.576-15.123,14.271-23.947,19.314c-9.546,5.447-15.458,6.523-27.252,8.512c-3.877,0.654-6.957,0.156-13.258,0.107
					c-6.857-0.059-13.389-1.201-20.075-2.719c-12.983-2.955-23.098-8.129-31.379-15.58c-9.057-8.15-16.705-17.494-20.472-29.016
					c-3.629-11.096-4.564-23.479-3.602-35.791c0.918-11.746,3.137-24.023,7.96-35.203c4.72-10.943,12.226-21.74,21.381-30.215
					c9.024-8.354,20.441-14.605,32.049-18.322c13.571-4.351,28.819-4.537,42.935-2.018c6.571,1.176,12.336,2.309,17.245,5.121
					c2.597,1.488,4.707,2.797,5.512,3.523c1.017,0.912,2.469,1.502,3.393,2.5c2.194,2.379,0.643,1.189,1.69,2.75
					c4.625,6.881,5.758,13.791,6.315,21.83c0.204,2.914,1.615,5.191,1.174,8.219c-0.588,4.068-2.551,7.441-4.099,11.137
					c-1.768,4.227-2.733,8.375-5.552,12.125c-3.716,4.949-8.99,7.779-14.452,10.395c-2.154,1.031-4.699,1.273-7.348,1.225
					c-3.777-0.07-7.761-0.736-11.112-0.561c-5.793,0.305-6.948-5.568-10.401-9.145c-12.567-13.016-33.619,6.807-21.038,19.842
					c9.04,9.367,20.521,16.9,32.376,19.227c11.905,2.336,24.495-1.166,35.811-9.348c10.042-7.26,18.149-16.854,23.526-27.936
					c5.362-11.062,7.344-23.434,7.385-35.725c0.058-17.248-4.167-30.941-12.939-40.949c-9.441-10.775-22.945-18.381-37.941-21.773
					c-13.879-3.141-29.383-2.531-44.023-0.21c-15.041,2.387-29.093,8.232-40.812,15.496c-12.191,7.562-23,16.846-31.519,28.16
					c-8.534,11.326-16.202,23.793-20.59,37.33c-4.383,13.527-4.567,28.113-4.353,42.297c0.22,14.188,1.881,28.348,7.171,41.637
					c5.294,13.312,13.078,24.707,22.841,33.664c10.077,9.242,22.397,15.621,35.357,20.119c12.779,4.438,26.413,7.248,40.16,6.963
					c13.588-0.285,27.15-3.453,39.905-8.457c11.475-4.508,21.928-10.672,31.114-18.516c9.118-7.785,17.915-16.475,25.14-26.369
					c7.122-9.756,12.71-20.805,18.345-31.479c5.792-10.975,10.978-22.121,15.569-32.859c4.899-11.461,8.46-23.43,12.645-35.166
					c4.179-11.723,9.253-23.162,12.947-35.068c3.689-11.891,5.955-24.757,9.383-36.732c9.87-0.513,20.422-0.457,30.285-1.112
					c2.076-0.14,4.938-0.12,7.019-0.263c-2.249,11.526-6.055,22.907-7.959,34.465c-1.994,12.098-3.583,24.396-5.018,36.676
					c-1.43,12.254-1.578,24.646-1.798,36.953c-0.226,12.328-0.075,24.674,1.578,36.914c1.727,12.805,5.512,25.963,12.696,35.938
					c7.27,10.084,18.188,17.219,32.534,18.527c2.339,0.215,4.74-0.088,6.862-1.127c7.159-3.502,8.63-13.34,5.688-20.086
					c-1.617-3.707-4.616-6.617-8.504-7.832c-2.507-0.781-4.996-0.084-7.107-1.756c-2.854-2.258-4.679-6.059-6.129-9.301
					c-1.666-3.723-3.565-6.781-5.815-10.146c-4.838-7.244-4.789-17.447-5.075-25.85c-0.413-12.111,0.626-24.352,1.608-36.418
					c1.221-15.018,3.352-30.002,5.688-44.922c2.331-14.869,5.354-29.969,8.507-44.746c17.45-1.667,35.349-2.401,52.543-5.676
					c2.271-0.433,5.496-1.682,7.822-2.161c-5.065,9.656-11.177,19.251-14.54,29.665c-3.393,10.506-3.924,21.695-5.672,32.338
					c-1.919,11.652-3.808,24.975-2.026,37.811c1.792,12.924,5.878,25.365,15.514,34.066c12.295,11.102,27.431,11.916,42.102,8.561
					c14.506-3.32,28.487-11.168,38.84-21.025c3.107-2.957,6.476-6.051,9.375-9.41c0.407,5.564,0.376,11.613,2.527,16.854
					c6.146,14.947,24.881,12.562,36.451,5.715c13.606-8.053,24.629-19.285,34.07-32.666c2.537,15.504,10.387,28.293,28.605,29.322
					c14.093,0.797,26.671-4.988,37.361-13.588c10.629-8.551,18.212-20.807,25.058-31.521c7.701-12.057,15.245-24.396,20.694-37.824
					c8.012,3.928,17.132,5.686,25.396,5.301c0.107,5.686,0.418,11.85,1.136,17.465c1.567,12.264,5.796,24.48,13.467,33.32
					c7.739,8.92,18.706,13.742,32.377,13.285c11.107-0.367,20.593-4.484,29.854-10.139c9.036-5.51,17.921-11.832,25.27-19.895
					c-1.753,9.16-1.272,17.91,5.991,22.496c6.438,4.068,14.459,2.211,18.462-4.268c2.61-4.223,4.202-9.535,5.225-14.26
					c2.16-10.057,3.018-20.438,5.614-30.391c2.909-10.498,7.673-20.459,10.755-30.908c5.364-16.768,10.333-33.749,18.206-49.288
					c5.961-11.781,14.401-23.098,22.554-31.736c7.319-7.753,17.347-16.496,28.992-14.211c3.374,0.662,6.824,7.007,7.39,10.072
					c1.408,7.636-1.008,16.891-3.057,24.222c-2.554,9.137-6.021,17.976-8.954,26.989c-3.963,12.178-7.19,24.604-10.885,36.788
					c-2.794,9.182-5.955,20.121-7.05,30.926c-1.116,10.965-0.498,21.555,6.593,29.992c7.274,8.643,20.865,10.018,30.938,6.752
					c15.361-4.994,25.484-18.701,34.714-31.316c0.43-0.582,0.872-0.477,1.301-1.072c0.692,15.682,6.041,32.141,22.872,33.225
					c10.8,0.693,21.544-4.438,30.336-11.713c8.617-7.125,15.243-16.846,21.088-24.621c4.328,12.898,12.843,24.402,28.537,26.695
					c11.621,1.691,22.698-3.205,31.84-10.242c8.545-6.578,15.231-15.664,21.494-24.885c1.373,12.637,6.311,24.02,18.996,27.719
					c14.818,4.328,28.97-3.646,41.375-14.291c12.252-10.514,23.423-23.785,30.461-33.768c6.967-9.896,13.934-19.982,19.663-30.661
					c5.727-10.685,10.129-22.122,14.938-33.202c3.082-7.102,6.756-14.313,9.346-21.961c0.846,0.137,1.198-0.537,2.045-0.419
					c-0.049,0.775-1.669,1.818-1.74,2.584c-0.083,0.872-0.289,1.626-0.409,2.495c-0.017-0.093,1.195,3.706,1.102,4.137
					c-2.573,13.113-7.426,25.754-10.78,38.679c-2.699,10.387-5.655,24.027-6.557,36.931c-0.922,13.211,0.255,26.453,10.901,34.514
					c10.238,7.754,26.193,2.074,36.132-3.547c13.505-7.637,24.442-19.723,33.383-32.094c0.457-0.626-0.442-1.135,0-1.767
					c3.951,10.431,10.682,20.163,20.607,26.12c11.713,7.021,23.724,5.773,35.098,2.553c10.844-3.072,22.21-7.992,31.838-16.52
					c8.927-7.914,17.605-17.234,24.747-26.726c8.139-10.815,12.944-22.967,17.781-31.667c8.783-15.782-13.618-29.919-22.411-14.104
					c-5.795,10.415-12.416,21.476-20.229,31.393c-7.845,9.956-17.903,17.69-27.934,24.436c-7.916,5.319-16.229,10.438-26.089,6.855
					c-6.596-2.391-11.914-12.947-10.767-19.53c1.227-7.039-0.693-13.453-0.624-20.526c4.027-2.755,8.328-6.939,11.701-9.851
					c8.853-7.658,18.357-14.616,26.678-22.847c8.226-8.142,17.728-17.465,25.896-27.585c8.207-10.167,14.987-21.423,17.676-33.224
					c3.189-14-2.917-25.064-12.775-31.057c-9.607-5.845-23.373-7.891-34.973-3.904c-13.099,4.503-22.38,15.265-30.354,26.587
					c-7.918,11.25-14.258,24.001-18.723,36.041c-6.813,18.369-10.038,38.664-10.901,58.477c-7.344,14.027-17.241,26.94-27.128,39.33
					c-3.745,4.687-8.899,9.844-13.362,12.987c-1.634,1.154-6.258,3.73-6.219,3.715c-0.842,0.307-1.32,0.736-2.192,0.936
					c-0.019-0.488-0.406-1.307-0.418-1.695c-0.06-2.975,0.347-5.959,0.671-8.919c1.296-11.685,4.281-24.873,7.913-38.232
					c3.451-12.691,6.627-25.663,8.531-38.004c1.424-9.191,1.713-20.738-6.166-27.327c-5.782-4.838-9.423-5.933-16.126-6.839
					c4.236-11.13,3.459-24.002-2.496-33.751c-9.09-14.891-33.309-15.298-44.232-2.362c-10.871,12.878-8.374,30.67,1.278,43.389
					c3.303,4.343,7.245,7.593,11.528,10.433c-1.408,4.309-1.633,8.625-3.255,12.851c-6.093,15.896-13.939,31.187-22.389,45.944
					c-8.344,14.575-19.104,27.741-30.603,40.026c-4.348,4.643-7.998,10.887-12.453,13.766c-1.236,0.805-2.783,1.225-4.085,1.924
					c-0.077,0.043-2.372,1.059-2.579,1.209c-0.73,0.236-1.663-1.283-2.405-1.098c-0.055-0.229-0.759,0.791-0.814,0.559
					c-0.22-0.982,1.261-2.266,1.111-3.262c-0.011-0.082-1.69,0.029-1.696-0.033c0-0.225,0.289-0.695,0.244-1.627
					c-0.588-11.338,0.768-24.828,2.472-34.664c2.461-14.165,7.435-27.818,11.004-41.768c3.571-13.945,7.285-27.83,11.396-41.588
					c3.148-10.513,4.413-21.648,7.93-32.052c5.804-17.187-20.137-25.036-25.907-7.946c-3.819,11.309-6.942,22.924-10.453,34.439
					c-3.225,10.574-7.091,21.062-9.679,31.821c-1.19,4.948-2.053,9.683-4.102,14.445c-2.521,5.859-5.702,11.344-8.138,17.189
					c-6.019,14.413-13.137,28.206-21.379,41.477c-4.198,6.757-8.549,13.521-13.924,19.422c-4.032,4.426-11.613,12.439-18.344,10.426
					c-0.137,0.25-0.371,0.561-0.47,0.869c0.346-1.08,0.385-2.383-1.172-1.514c1.281,2.635,6.106,0.523,2.447-2.162
					c-3.321-2.436-5.95-4.42-6.736-8.885c-0.679-3.842,0.842-7.445,0.185-11.326c-0.759-4.488-1.278-9.08-0.88-13.635
					c0.272-3.123,0.646-6.854,1.498-9.867c1.838-6.489,4.378-12.911,4.701-19.494c0.007-0.065,0.496,0.082,0.498,0.014
					c0.353-1.756-0.409-3.741-0.03-5.522c2.602-12.274,6.17-24.305,9.596-36.394c3.426-12.084,7.736-23.859,11.74-35.742
					c1.083-3.209,1.904-6.479,3.067-9.66c6.2-17.051-20.796-25.22-26.948-8.302c-4.287,11.784-8.161,23.92-11.977,36.203
					c-3.765,12.12-9.434,23.83-12.296,36.227c-2.875,12.471-4.294,25.239-5.807,37.788c-3.668,11.195-9.375,22.222-15.569,31.666
					c-6.464,9.838-17.06,22.639-27.543,28.037c-0.127-1.68,0.844-3.127,0.811-4.809c-0.115-4.725,0.297-9.359,0.595-14.072
					c0.879-13.72,1.682-27.472,3.764-41.208c2.06-13.593,2.95-27.515,5.799-41.098c2.831-13.488,6.834-26.795,10.07-40.246
					c3.236-13.45,7.291-26.703,10.558-40.086c2.075-8.495,3.83-17.15,5.963-25.641c11.025-1.363,21.954-3.755,32.913-5.608
					c10.959-1.858,21.772-4.11,32.561-6.772c9.744-2.4,20.264-3.984,29.886-7.948c9.646-3.97,18.229-9.771,25.807-16.706
					c13.361-12.232-5.785-32.514-19.131-20.295c-4.479,4.099-11.451,9.139-19.718,12.493c-8.022,3.253-20.959,4.707-30.852,6.967
					c-14.576,3.332-29.545,7.087-44.367,9.149c4.583-17.558,8.396-35.736,13.318-53.194c4.916-17.42-20.049-25.136-24.959-7.731
					c-3.02,10.705-7.759,20.953-10.634,31.706c-2.879,10.75-3.421,22.22-6.189,32.997c-1.226,0.138-3.555-1.155-4.781-1.022
					c-11.803,1.314-23.405,4.575-35.228,5.73c-11.82,1.148-23.642,2.117-35.439,3.469c-12.837,1.479-29.448,2.018-39.775,10.946
					c-13.258,11.47,3.59,30.042,17.117,20.611c0.053-0.025-0.438-1.49-0.365-1.518c0.121-0.037,0.695,1.222,0.855,1.172
					c2.963-0.918,5.85-2.474,8.896-3.03c8.573-1.562,17.496-0.971,26.154-1.918c17.016-1.859,35.746-3.156,54.227-5.07
					c-0.869,3.48-2.293,5.823-3.145,9.301c-3.141,12.776-4.502,26.053-7.583,38.945c-3.068,12.834-8.419,25.179-11.19,38.109
					c-1.707,7.97-1.729,16.185-4.16,24.015c-0.83,2.675-1.313,5.095-1.61,7.869c-0.595,5.525-2.623,11.242-5.37,16.023
					c-4.854,8.457-7.651,18.062-12.246,26.709C945.002,705.333,940.421,716.247,933.35,725.647z M183.191,686.278
					c0.045-0.029-0.419-1.284-0.371-1.311c0.167-0.064-0.27,0.565,0.07,0.422C182.55,685.535,183.449,686.159,183.191,686.278z
					 M360.182,479.279c0.542,0.589,0.649,1.793,0.214,3.718c-1.122,5.001-3.529,9.878-5.141,14.745
					c-2.476,7.475-4.914,14.966-7.231,22.487c-4.349,14.127-9.859,27.923-13.866,42.165c-4.009,14.239-7.725,28.571-11.333,42.911
					c-3.607,14.353-6.849,28.699-10.002,43.133c-7.209,0.524-14.167,1.68-21.365,2.122c-4.015,0.248-8.843,0.017-12.856,0.232
					c2.738-9.713,7.201-19.251,10.024-28.913c3.563-12.207,5.905-25.008,9.81-37.297c3.92-12.351,7.442-24.877,12.119-36.65
					c4.858-12.233,10.869-23.795,16.997-34.681c4.173-7.41,9.238-14.291,15.127-20.43c3.733-3.89,7.951-9.609,12.511-12.452
					C357.589,478.875,359.374,478.389,360.182,479.279z M441.77,776.301c-5.592,3.717-12.386,7.043-19.158,7.578
					c-1.801,0.139-3.635-1.686-5.431-1.768c-0.28-0.01-1.693,1.111-2.32,1.025c-0.824-0.217-1.91,0.229-2.716-0.033
					c-0.314-0.102-0.352-0.799-0.461-0.816c-0.221-0.143,0.043-1.488-0.55-1.834c-2.299-1.338-3.303-2.75-5.111-5.996
					c-0.442-0.791-0.968-1.496-1.336-2.318c0.534,1.143-1.667-1.297-1.776-1.633c-0.956-2.971-2.408-5.967-2.895-9.043
					c-1.358-8.471,0.33-25.377,2.464-35.686c2.898-14.039,8.831-27.691,14.981-40.586c6.326-13.266,14.635-25.591,23.395-37.32
					c0.803-1.075,1.599-2.438,2.601-3.334c0.859-0.768,2.004-1.156,3.017-1.757c2.517-1.493,4.842-3.287,7.373-4.758
					c2.937-1.707,6.948-1.799,10.292-1.788c4.031,0.013,8.048,0.618,11.992,1.386c3.118,0.607,5.007-0.085,7.811,2.049
					c5.084,3.868,7.451,10.599,8.818,16.606c1.69,7.438,1.816,15.451,1.522,23.048c-0.401,10.414-3.986,19.204-7.907,28.703
					c-5.419,13.127-9.441,26.582-17.136,38.668C462.004,758.049,453.062,768.79,441.77,776.301z M507.817,782.708
					c-0.01-0.039,1.056-0.85,1.04-0.893C510.144,783.393,508.373,783.668,507.817,782.708z M770.777,616.045
					c0.008,0.004,1.327-0.143,1.342-0.143C772.116,615.968,770.788,616.116,770.777,616.045z M737.534,638.331
					c4.839-8.637,8.139-13.702,15.171-19.748c2.915-2.508,0.801,1.295,3.977-0.613c0.543-0.33,2.31-2.513,2.99-2.854
					c1.21-0.25,3.045-1.297,3.045-1.385c1.753-0.017,3.631,0.814,5.369,0.979c0.846,0.08,1.127,1.089,2.089,1.435
					c-0.391,1.512-1.067,2.373-1.638,3.821c-0.004,0.012,1.666,0.749,1.659,0.759c-0.506,1.028-1.522,1.817-2.072,2.816
					c-1.061,1.925-1.54,4.262-2.728,6.104c-10.382,15.943-25.02,29.828-39.603,43.547c-0.516,0.486-1.192,0.426-1.721,0.91
					C727.556,661.597,731.458,649.169,737.534,638.331z M838.029,592.419c-0.006,0.102,1.215,0.591,1.201,0.689
					C839.242,593.032,838.015,592.533,838.029,592.419z M911.208,741.377c-0.012-0.006,0.06-1.326,0.054-1.336
					c0.028,0.006-0.203,1.719-0.17,1.727c0.017,0.008,0.353-0.541,0.357-0.533C911.416,741.229,911.24,741.383,911.208,741.377z
					 M913.533,742.241c0.044,0.057-0.946-0.17-0.974-0.213C912.752,741.836,913.533,742.241,913.533,742.241z M911.449,740.213
					c-0.012-0.008-0.787,1.076-0.792,1.076c-0.082-0.061,0.286-1.742,0.168-1.826C910.938,739.547,911.347,740.139,911.449,740.213z
					 M1143.974,725.448c-0.002-0.012,0.804-1.072,0.792-1.09C1145.284,724.745,1144.324,725.733,1143.974,725.448z
					 M1260.339,711.137c-0.014-0.09,1.265-0.508,1.248-0.6c0.021,0.109-1.68,0.615-1.66,0.68
					C1259.921,711.217,1260.342,711.143,1260.339,711.137z M1250.76,613.229c-0.83-1.672,0.943-1.155,1.268-0.144
					C1251.992,613.355,1250.76,613.229,1250.76,613.229z M1262.137,713.526c0.391,0.781-0.995,0.535-1.234,0.008
					C1260.985,713.274,1262.137,713.526,1262.137,713.526z M1261.786,712.735c1.089,1.203-0.638,1.242-1.183,0.463
					C1260.57,712.928,1261.786,712.735,1261.786,712.735z M1391.468,560.32c0.033,0.023,0.324-0.073,0.352-0.052
					c0.012,0.01-0.021-0.238-0.009-0.223c-0.06-0.041-0.835,1.045-0.884,1.012C1390.944,561.057,1391.457,560.318,1391.468,560.32z
					 M1390.068,560.689c0.012,0.005,1.34-0.096,1.346-0.088C1391.418,560.675,1390.085,560.785,1390.068,560.689z M1391.119,561.398
					c-0.005-0.006,0.721-1.122,0.716-1.128c0.161,0.105-0.556,1.738-0.325,1.892
					C1391.303,562.025,1391.284,561.508,1391.119,561.398z M1350.417,595.09c2.081-4.994,4.836-10.674,8.02-15.881
					c3.121-5.108,7.932-7.951,11.809-12.312c1.155-1.303,1.928-3.173,3.158-4.352c2.008-1.917,5.467-3.6,7.952-4.842
					c7.819-3.909,10.913,5.595,7.703,11.58c-1.597,2.978-4.844,5.598-7.065,8.122c-5.41,6.145-10.929,12.185-16.463,18.19
					c-7.353,7.973-14.792,15.577-22.748,22.951C1345.02,610.535,1347.31,602.543,1350.417,595.09z"/>
			</g>
		</g>
		<g>
			<path fill="#28415E" d="M623.583,80.225c-5.004-3.38-9.965-6.832-14.941-10.254c-1.979-1.36-3.769-2.333-5.937-3.274
				c-2.218-0.963-3.828-3.162-5.512-4.826c-1.532-1.514-2.792-2.07-4.619-3.006c-2.4-1.229-4.614-3.112-6.838-4.638
				c-2.34-1.605-4.681-3.211-7.021-4.814c-2.271-1.456-5.092-1.153-6.976,0.539c-2.228,1.687-2.986,4.364-1.933,6.822
				c3.037,7.073,5.657,14.619,9.442,21.331c1.051,1.864,2.3,3.613,3.146,5.586c1.528,3.562,1.807,7.474,3.683,10.833
				c2.116,3.788,3.573,8.2,5.257,12.201c0.9,2.138,2.696,3.364,4.923,3.364c2.043,0,4.087-1.088,5.206-2.774
				c1.033-1.556,1.18-3.417,0.407-5.25c0-1.123-1.309-2.99-1.759-3.997c-0.782-1.748-0.513-3.691-0.513-5.62
				c0-1.606-0.237-2.017,1.185-2.792c1.949-1.063,3.398-2.718,5.292-3.852c5.414-3.241,8.928,4.88,14.079,4.88
				c2.48,0,4.845-1.85,5.624-4.397C626.504,83.909,625.682,81.643,623.583,80.225z M596.982,77.274
				c-0.091,1.231-1.559,2.374-2.064,2.679c-0.411,0.213-0.802,0.324-1.161,0.324c-0.697,0-1.312-0.433-1.828-1.23
				c-0.169-0.336-0.307-0.669-0.44-0.993c-0.098-0.234-0.193-0.466-0.297-0.691c-0.2-1.218-0.067-2.239,0.358-2.752
				c0.106-0.126,0.43-0.515,1.439-0.515c0.489,0,1.071,0.091,1.728,0.272c0.343,0.215,0.664,0.428,0.947,0.672
				C596.592,75.802,597.036,76.556,596.982,77.274z"/>
			<path fill="#28415E" d="M653.762,12.389c-0.831-2.356-2.773-3.763-5.198-3.763c-2,0-3.93,0.974-5.04,2.541
				c-1.025,1.448-1.24,3.238-0.604,5.04l2.141,6.07c0.123,0.481,0.286,1.729-0.828,2.923c-0.624,0.658-1.349,0.992-2.16,0.992
				c-0.896,0-1.723-0.412-2.131-0.805c-0.182-0.212-0.403-0.37-0.642-0.461c-1.937-2.137-3.915-4.37-6.05-6.832
				c-1.226-1.345-2.908-2.087-4.734-2.087c-1.972,0-3.768,0.875-4.805,2.339c-0.99,1.402-1.177,3.196-0.521,5.057
				c0.883,2.505,1.766,5.013,2.648,7.521c0.355,1.012,0.864,2.063,0.961,3.142c0.073,0.802-0.073,1.536,0.106,2.343
				c0.511,2.286,1.909,4.403,3.073,6.396c1.595,2.731,3.699,5.713,4.367,8.848c0.539,2.521,0.516,4.883,1.388,7.379
				c1.509,4.317,3.036,8.627,4.555,12.938c0.819,2.326,2.748,3.713,5.159,3.713c2.017,0,3.961-0.979,5.077-2.554
				c1.014-1.435,1.231-3.2,0.605-4.974l-2.169-6.163c-0.065-0.185-0.592-1.84,0.776-3.297c0.599-0.634,1.308-0.958,2.102-0.958
				c0.668,0,1.382,0.232,1.929,0.626c0.844,0.956,1.699,1.917,2.56,2.884c2.501,2.807,5.464,7.136,9.516,7.758
				c3.958,0.607,6.138-4.876,5.045-7.973c-0.166-0.467-0.33-0.935-0.494-1.403c-2.086-5.926-4.173-11.852-6.258-17.776
				c-1.252-3.553-2.628-7.072-3.527-10.728c-0.403-1.632-1.258-3.093-1.777-4.69c-0.606-1.859-1.015-3.796-1.89-5.558
				C655.604,18.18,654.762,15.229,653.762,12.389z"/>
			<path fill="#28415E" d="M718.794,4.497C714.318,0.466,707.858,0,703.388,0c-2.282,0-4.5,0.132-6.644,0.26
				c-0.94,0.057-1.852,0.11-2.722,0.15c-1.528,0.069-2.941,0.734-3.979,1.871c-1.038,1.137-1.57,2.604-1.5,4.133
				c0.162,3.619,0.329,7.239,0.495,10.857c0.122,2.705,0.813,5.296,0.778,7.97c-0.046,3.364,0.708,6.747,0.325,10.075
				c-0.41,3.556,0.05,7.232,0.213,10.8c0.196,4.301,0.391,8.602,0.587,12.901c0.141,3.077,2.662,5.487,5.741,5.487
				c0.089,0,0.176-0.003,0.263-0.006c0.686-0.033,1.384-0.059,2.092-0.085c2.535-0.097,5.228-0.02,7.713-0.587
				c1.524-0.348,2.923-1.012,4.409-1.472c1.007-0.312,1.96-0.223,2.988-0.318c2.535-0.234,5.198-2.294,6.908-4.066
				c0.037-0.039,0.074-0.078,0.111-0.117c1.873-1.981,2.969-4.546,3.627-7.162c0.386-1.534,0.547-3.112,0.708-4.682
				c0.149-1.43,0.588-2.988,0.503-4.422c-0.17-2.858-0.567-5.714-0.598-8.597c-0.023-2.188,0.122-4.339-0.075-6.526
				c-0.107-1.193-0.327-2.349-0.355-3.552c-0.028-1.255,0.006-2.519-0.202-3.763c-0.316-1.884-0.708-3.757-1.227-5.594
				C722.636,10.334,721.348,6.797,718.794,4.497z M715.023,29.593c0.039,0.963,0.009,1.926-0.123,2.887
				c-0.527,3.868-0.033,7.796-0.41,11.685c-0.271,2.797-0.938,4.886-1.924,6.032c-1.699,1.93-7.195,2.385-10.405,2.556
				c0.019-0.001-0.669-14.681-0.711-15.607c-0.05-1.103,0.01-2.264-0.292-3.332c-0.228-0.807-0.235-1.459-0.212-2.306
				c0.015-0.57,0-1.141-0.007-1.71c-0.038-2.31-0.105-4.618-0.175-6.926c-0.022-0.735-0.314-11.24-0.476-11.234
				c1.99-0.065,3.763-0.05,5.472,0.054c1.144,0.02,2.342,0.262,3.407,0.491c0.546,0.156,1.436,0.513,1.684,0.632
				c1.091,0.528,1.629,2.627,1.933,3.631c0.435,1.443,0.712,2.936,0.938,4.424C714.158,23.74,714.905,26.666,715.023,29.593z"/>
			<path fill="#28415E" d="M821.686,26.834c-2.983-4.557-7.72-7.17-12.998-7.17c-1.829,0-4.041,0.19-5.672,1.095
				c-0.531,0.295-0.99,0.711-1.511,1.029c-0.395,0.241-0.771,0.48-1.148,0.744c-0.491,0.343-0.755,0.277-1.303,0.441
				c-0.323,0.097-0.673,0.371-0.955,0.553c-0.649,0.419-1.237,0.917-1.765,1.483c-1.083,1.16-1.963,2.589-2.378,4.128
				c-0.359,1.334-1.054,2.56-1.47,3.882c-0.436,1.376-0.757,2.822-0.838,4.268c-0.142,2.52,0.16,5.328,1.124,7.681
				c0.855,2.088,2.505,3.713,3.38,5.741c0.72,1.672,1.775,2.869,2.841,4.34c0.95,1.313,1.59,2.655,1.848,3.896
				c0.78,3.517-0.942,7.451-4.183,9.562c-0.594,0.383-1.181,0.577-1.741,0.577c-1.384,0-2.346-1.144-2.796-1.824
				c-1.166-1.771-1.479-4.181-0.761-5.858c0.794-1.828,0.662-3.707-0.376-5.289c-1.116-1.707-3.162-2.81-5.208-2.81
				c-2.175,0-3.944,1.197-4.857,3.294c-0.523,1.214-1.199,2.814-1.2,4.159c-0.002,0.534,0.261,0.988,0.343,1.524
				c0.104,0.679,0.074,1.37,0.062,2.052c-0.026,1.475-0.016,3.072,0.263,4.52c0.289,1.495,1.229,3.053,2.056,4.309
				c1.501,2.281,3.537,4.212,5.966,5.475c1.119,0.582,2.469,1.207,3.746,1.279c1.393,0.074,2.668,0.08,4.057,0.361
				c1.978,0.4,3.135-0.448,4.832-1.145c1.58-0.651,3.032-1.575,4.317-2.7c2.543-2.23,4.409-5.188,5.597-8.34
				c1.236-3.279,2.139-7.235,1.462-10.691c-0.821-4.203-3.001-8.111-5.849-11.278c-0.154-0.284-0.428-0.63-0.834-1.141
				c-0.23-0.292-0.454-0.568-0.543-0.699c-1.025-1.471-1.662-2.867-1.9-4.181c-0.62-2.9,0.979-7.254,4.045-8.734
				c1.8-0.849,3.619-0.229,4.757,1.527c1.064,1.644,1.246,3.832,0.452,5.598c-0.772,1.84-0.617,3.729,0.437,5.313
				c1.127,1.699,3.164,2.794,5.19,2.794c2.178,0,3.938-1.211,4.816-3.308C825.364,37.864,824.875,31.712,821.686,26.834z"/>
			<path fill="#28415E" d="M872.682,59.763c-1.501-1.212-3.462-2.019-4.816-3.299c-2.053-1.938-5.521-2.891-8.302-2.921
				l-0.306-0.003c-3.316,0-6.447,1.364-9.189,3.138c-1.403,0.91-2.726,1.936-4.002,3.015c-1.082,0.913-0.965,2.277-2.494,2.893
				c-0.888,0.357-1.868,1.607-2.564,2.263c-0.863,0.817-1.678,1.675-2.498,2.532c-0.604,0.632-1.248,0.972-1.946,1.459
				c-0.862,0.604-1.554,1.507-2.256,2.285c-3.093,3.426-5.958,7.093-8.275,11.093c-0.581,1.001-1.124,2.022-1.626,3.065
				c-1.916,4.084-2.655,8.82-1.096,13.144c0.629,1.736,1.614,3.397,2.857,4.769c3.147,3.478,7.406,6.028,12.184,6.028
				c0.912,0,1.821-0.086,2.719-0.246c4.367-0.775,8.312-3.172,11.773-5.849c1.619-1.251,3.442-2.549,4.581-4.269
				c1.118-1.69,2.964-2.872,4.347-4.358c1.321-1.42,2.393-3.128,3.844-4.418c1.139-1.011,2.308-1.805,3.29-3.003
				c1.222-1.489,2.37-3.048,3.41-4.671c2.112-3.299,3.859-7.023,4.127-10.986c0.212-3.144-0.854-6.277-1.906-9.202
				C874.167,61.192,873.491,60.418,872.682,59.763z M862.3,66.806c1.221,1.123,2.14,2.681,2.301,3.95
				c0.109,0.877,0.118,1.784-0.029,2.416c-0.278,1.188-1.33,2.531-2.015,3.521c-1.723,2.498-3.822,4.708-5.9,6.907
				c-0.702,0.744-1.378,1.458-1.986,2.128l-0.92,0.989c-3.841,4.139-8.194,8.83-13.297,10.861c-0.783,0.311-1.422,0.462-1.948,0.462
				c-0.947,0-1.64-0.472-2.883-1.561c-1.77-1.749-2.16-2.26-1.463-4.828c1.315-4.746,5.431-9.158,9.064-13.051
				c0.615-0.658,1.213-1.298,1.767-1.908c0.433-0.463,0.873-0.943,1.323-1.433c2.869-3.121,5.792-6.396,9.455-8.608
				c0.95-0.575,2.071-1.273,3.251-1.318C860.149,65.292,861.321,65.908,862.3,66.806z"/>
		</g>
		<path fill="#B79D55" d="M520.91,1293.45c-0.417,1.293-0.297,2.936-0.377,4.223c-0.261,4.215,2.555,6.854,6.258,8.354
			c2.354,0.949,4.46,2.516,6.731,3.715c3.092,1.631,6.35,2.49,9.483,3.803c3.016,1.268,6.091,2.088,9.086,3.299
			c2.99,1.213,5.945,2.582,8.911,3.738c2.976,1.162,5.966,2.102,8.92,3.209c2.96,1.102,5.988,1.482,8.927,2.531
			c4.307,1.547,8.683,3.818,12.831,5.121c2.914,0.914,5.816,1.875,8.713,2.732c2.89,0.857,5.852,0.857,8.732,1.658
			c2.882,0.795,5.712,1.936,8.573,2.678c2.86,0.742,5.7,1.711,8.543,2.391c2.839,0.686,5.688,1.363,8.511,1.986
			c2.833,0.623,5.722-0.131,8.54,0.43c2.822,0.57,5.564,2.27,8.368,2.773c2.793,0.502,5.629,0.064,8.431,0.508
			c2.796,0.447,5.571,0.736,8.356,1.119c2.787,0.383,5.554,0.494,8.332,0.809c2.773,0.322,5.507,1.414,8.276,1.674
			c2.772,0.262,5.527-0.043,8.294,0.156c2.766,0.197,5.501,1.744,8.253,1.885c2.748,0.139,5.515,0.445,8.258,0.518
			c2.749,0.076,5.497-0.969,8.255-0.957c2.75,0.014,5.497-0.061,8.247-0.105c2.804-0.051,5.586-0.09,8.389-0.195
			s5.589-0.861,8.393-1.023c2.811-0.164,5.62,0.779,8.428,0.561c2.804-0.221,5.607-0.654,8.43-0.928
			c2.806-0.271,5.662,0.521,8.475,0.193c2.821-0.322,5.64-1.109,8.469-1.486c2.832-0.375,5.645-1.43,8.49-1.857
			c2.843-0.426,5.717-0.078,8.571-0.549c2.855-0.479,5.744-0.492,8.606-1.018c2.863-0.529,5.675-2.432,8.567-3.002
			c2.884-0.572,5.782-1.078,8.681-1.697c2.896-0.617,5.765-1.883,8.688-2.543c2.916-0.66,5.834-1.398,8.769-2.105
			c2.939-0.705,5.916-0.879,8.866-1.627c2.961-0.744,5.961-0.98,8.934-1.766c2.98-0.787,5.996-1.238,8.989-2.064
			c2.999-0.83,5.999-1.793,9.019-2.658c3.165-0.91,6.256-3.176,9.476-4.109c3.21-0.932,6.522-0.881,9.767-1.865
			c3.225-0.982,6.505-1.854,9.76-2.916c3.26-1.064,6.556-2.037,9.829-3.211c3.278-1.18,6.384-3.514,9.668-4.838
			c2.985-1.201,4.685-5.08,3.004-8.129c-1.594-2.873-2.259-6.562-3.888-9.43c-1.621-2.867-4.047-5.043-5.703-7.898
			c-1.672-2.865-3.471-5.605-5.174-8.459c-1.386-2.322-3.423-4.336-4.255-6.961c-0.831-2.619,0.183-5.361-0.462-8.037
			c-0.462-1.924-1.309-3.568-1.09-5.609c0.334-3.092,1.842-6.209,3.074-9.031c0.608-1.391,0.784-2.787,1.137-4.252
			c0.472-1.965,1.751-3.506,2.479-5.363c1.519-3.875,3.701-7.451,5.235-11.322c0.738-1.863,0.813-4.082-0.373-5.783
			c-1.933-2.777-4.429-1.676-7.156-1.496c-2.323,0.152-4.579-0.842-6.899-0.559c-1.892,0.232-3.383,1.238-4.903,2.287
			c-3.356,2.311-7.525,0.168-11.285,1.455c-1.012,0.348-1.783,1.129-2.888,1.227c-1.043,0.092-1.948-0.51-2.989-0.459
			c-2.182,0.107-4.562,1.156-6.7,1.645c-3.481,0.793-6.814,2.867-10.271,3.602c-3.465,0.736-6.967,1.107-10.414,1.791
			c-3.442,0.686-6.924,1.041-10.351,1.68c-3.438,0.639-6.968-0.141-10.392,0.455c-3.275,0.564-6.425,2.479-9.68,3
			c-3.256,0.518-6.5,1.113-9.742,1.584c-3.242,0.473-6.532,0.133-9.768,0.555c-3.231,0.43-6.385,2.307-9.607,2.686
			c-3.223,0.375-6.459,0.553-9.671,0.881c-3.212,0.33-6.464-0.248-9.672,0.031c-3.205,0.277-6.415,0.406-9.616,0.635
			c-3.203,0.227-6.409-0.328-9.615-0.15c-3.203,0.178-6.367,1.719-9.555,1.844c-3.194,0.125-6.388,0.275-9.576,0.35
			c-3.188,0.078-6.388-0.139-9.571-0.119c-3.178,0.021-6.386,0.34-9.573,0.309c-3.19-0.035-6.368-1.127-9.563-1.211
			c-3.188-0.086-6.396,0.453-9.588,0.311c-3.189-0.141-6.397,0.055-9.599-0.145c-3.199-0.193-6.425,0.018-9.619-0.232
			c-3.198-0.246-6.389-1.09-9.604-1.395c-3.199-0.305-6.343-2.018-9.569-2.383c-3.226-0.357-6.502,0.359-9.725-0.057
			c-3.219-0.42-6.47-0.748-9.704-1.223c-3.212-0.475-6.365-1.834-9.6-2.361c-3.233-0.523-3.263-0.453-6.489-1.059
			c-3.234-0.602-6.489-1.244-9.726-1.9c-3.245-0.654-6.561-0.93-9.812-1.639c-3.257-0.711-6.489-1.912-9.754-2.674
			c-9.024-2.107-17.562-5.641-26.317-8.598c-4.677-1.58-9.527-2.873-14.393-3.725c-2.439-0.426-6.153-0.879-8.063,1.117
			c-2.386,2.492,0.349,5.764,1.688,8c1.806,3.008,0.427,6.377,1.673,9.562c1.317,3.371,1.729,6.514,2.2,10.109
			c0.516,3.928,2.354,7.623,2.646,11.551c0.243,3.295,1.588,6.738,0.709,10.043c-0.75,2.811-3.657,4.256-5.43,6.416
			c-1.396,1.699-3.145,3.055-5.041,4.154c-1.714,0.994-2.992,2.219-4.601,3.32c-4.396,3.016-8.936,5.789-13.245,8.943
			c-1.416,1.035-3.275,2.436-4.072,4.053C521.038,1293.092,520.968,1293.266,520.91,1293.45z"/>
		<g>
			<path fill="#FFFFFF" d="M605.571,1250.848c-0.94-0.215-1.865-0.426-2.738-0.641c-1.688-0.447-3.382-0.105-4.491,0.768
				c-1.157,0.674-1.977,1.809-2.366,3.279l-12.614,47.711c-0.415,1.566-0.193,3.059,0.638,4.307
				c0.875,1.312,2.402,2.244,4.099,2.502c0.639,0.178,1.277,0.361,1.915,0.545c3.673,1.061,7.473,2.152,11.37,2.152
				c1.447,0,2.801-0.145,4.139-0.447c7.251-1.652,11.079-9.506,11.657-16.557c0.195-2.473-0.259-4.822-1.351-6.98
				c-0.918-3.238,1.284-5.293,1.271-5.293c1.87-1.303,3.311-2.939,4.387-4.967c3.708-6.477,2.945-15.145-1.777-20.162
				C616.066,1253.225,610.491,1251.961,605.571,1250.848z M603.086,1271.135l0.972-3.674l0.506,0.139l-0.104-1.607
				c-0.002-0.037-0.002-0.043,0.042-0.209l-1.048-0.271l0.003-0.012l1.084,0.129c0.584-2.207,1.837-2.463,2.727-2.463
				c0.582,0,1.246,0.129,1.876,0.344c0.869,0.393,1.541,0.711,2.168,1.072c0.838,0.518,1.176,1.521,1.312,2.273
				c0.365,2.035-0.28,4.355-1.101,5.406c-1.115,1.371-2.853,2.037-5.312,2.037h-0.293c-0.806-0.082-1.884-0.328-2.44-1.049
				C603.083,1272.739,602.959,1271.991,603.086,1271.135z M597.372,1292.752l0.378-1.43c0.623-2.236,1.69-2.494,2.438-2.494
				c0.999,0,2.119,0.537,2.806,1.018c1.676,1.098,2.662,2.395,3.019,3.982c0.289,1.188-0.223,3.035-1.246,4.492
				c-0.83,1.184-1.837,1.922-2.71,2.018c-0.883,0.057-1.718,0.037-2.482-0.098c-0.643-0.096-2.208-0.438-2.871-1.527
				c-0.463-0.766-0.457-1.854,0.021-3.229l0.929-2.895L597.372,1292.752z"/>
			<path fill="#FFFFFF" d="M672.376,1263.188l-12.534-1.734c-0.544-0.074-1.1-0.162-1.659-0.25
				c-1.601-0.254-3.257-0.516-4.834-0.516c-4.138,0-6.61,1.939-7.576,6.037l-5.413,39.137c-0.083,0.6-0.186,1.23-0.29,1.877
				c-0.598,3.656-1.274,7.799,0.796,10.607c1.076,1.459,2.78,2.357,5.062,2.676l18.103,2.504c0.3,0.039,0.589,0.061,0.868,0.061
				c3.291,0,5.194-2.658,5.374-5.281c0.172-2.49-1.229-5.385-4.71-5.867l-11.629-1.607c-1.842-0.295-2.688-1.205-2.59-2.701
				l1.308-9.455c0.092-0.674,0.543-2.24,2.722-2.24l0.155-0.004l10.114,1.398c3.795,0.521,5.992-2.383,6.188-5.23
				c0.172-2.486-1.213-5.379-4.655-5.854l-9.747-1.348c-2.603-0.361-2.64-2.164-2.536-2.92l1.054-7.623
				c0.114-0.83,0.609-2.227,2.637-2.227c0.198,0,0.407,0.01,0.606,0.035l11.655,1.611c0.299,0.041,0.588,0.062,0.867,0.062
				c3.291-0.002,5.193-2.658,5.374-5.283C677.257,1266.565,675.856,1263.668,672.376,1263.188z"/>
			<path fill="#FFFFFF" d="M706.234,1295.086c0.158-5.785,0.547-11.832,3.341-16.59c0.968-1.619,2.884-2.195,4.354-2.195
				c1.826,0,3.961,0.861,3.962,3.291c-0.003,1.562,0.534,2.928,1.554,3.947c1.057,1.059,2.577,1.666,4.173,1.666c0,0,0,0,0.001,0
				c2.708,0,5.455-1.844,5.462-5.369c-0.007-6.184-2.794-10.781-7.835-12.945c-2.555-1.145-5.345-1.75-8.067-1.75
				c-3.152,0-6.03,0.828-8.323,2.396c-8.035,5.5-9.446,16.891-9.779,26.191l-0.051,1.801c-0.175,9.314,0.613,20.762,8.345,26.701
				c2.485,1.863,5.693,2.85,9.277,2.85c1.394,0,2.803-0.15,4.124-0.439c3.437-0.555,5.996-1.895,7.719-3.996l0.527-0.344
				l0.005-0.229c1.414-1.668,2.357-3.676,2.788-5.9c1.021-3.592,1.123-7.312,1.222-10.91c0.041-1.49-0.504-2.91-1.534-3.998
				c-1.029-1.088-2.417-1.711-3.906-1.75l-7.84-0.215l-0.182-0.002c-3.558,0-5.293,2.768-5.396,5.34
				c-0.109,2.691,1.567,5.562,5.051,5.844l0.131,0.002c1.088,0.111,1.553,0.451,1.752,0.715c0.223,0.299,0.281,0.748,0.209,1.197
				c-0.075,0.236-0.137,0.461-0.194,0.676c-0.062,0.232-0.118,0.451-0.174,0.609c-0.804,1.859-2.769,2.061-3.576,2.061
				c-1.895,0-3.812-0.934-4.764-2.307c-2.737-4.09-2.561-10.072-2.403-15.346L706.234,1295.086z"/>
			<path fill="#FFFFFF" d="M756.714,1265.127c-1.65,0-3.196,0.631-4.242,1.736c-0.992,1.041-1.473,2.42-1.393,3.984l2.554,49.201
				c0.185,3.566,3.004,5.191,5.546,5.191c1.638,0,3.177-0.631,4.224-1.732c1-1.055,1.487-2.451,1.405-4.041l-2.555-49.201
				C762.07,1266.735,759.253,1265.127,756.714,1265.127z"/>
			<path fill="#FFFFFF" d="M815.194,1263.702c-0.459-3.25-3.059-4.705-5.429-4.705c-1.732,0-3.4,0.73-4.462,1.953
				c-1.011,1.166-1.423,2.664-1.186,4.328l0.865,6.047c0.022,0.453-0.055,1.594-1.264,2.459c-0.516,0.367-1.055,0.553-1.6,0.553
				c-1.096,0-1.979-0.723-2.211-1.062c-0.139-0.275-0.338-0.498-0.57-0.65c-1.493-2.496-2.911-4.941-4.354-7.477
				c-1.136-1.883-3.132-3.008-5.34-3.008c-1.641,0-3.148,0.65-4.132,1.783c-0.69,0.799-1.449,2.205-1.14,4.387l6.899,48.486
				c0.455,3.213,3.048,4.65,5.413,4.65c1.746,0,3.424-0.732,4.488-1.959c1.001-1.154,1.408-2.629,1.174-4.268l-0.874-6.15
				c-0.023-0.178-0.2-1.748,1.286-2.809c0.494-0.35,1.015-0.529,1.546-0.529c0.894,0,1.671,0.494,2.096,0.945
				c0.604,1.039,1.217,2.084,1.832,3.135c1.085,1.848,2.181,3.715,3.26,5.611c1.127,1.869,3.11,2.986,5.305,2.986
				c1.657,0,3.174-0.654,4.166-1.799c0.688-0.795,1.446-2.193,1.139-4.35L815.194,1263.702z"/>
			<path fill="#FFFFFF" d="M871.02,1281.241c-2.778-3.52-7.721-6.014-13.291-6.723c-0.338-0.121-0.764-0.203-1.251-0.297
				c-0.341-0.066-0.665-0.125-0.811-0.164c-1.637-0.422-2.944-1.023-3.917-1.816c-2.211-1.68-3.73-5.74-2.46-8.652
				c0.725-1.625,2.01-1.967,2.962-1.967c1.881,0,4.253,1.434,4.973,3.861c0.771,2.385,2.799,3.865,5.298,3.865
				c1.924,0,3.768-0.895,4.814-2.334c0.955-1.309,1.181-2.957,0.644-4.621c-2.127-6.93-8.543-11.77-15.603-11.77
				c-4.923,0-9.257,2.287-12.205,6.445c-4.229,5.975-2.648,15.311,1.249,20.543c3.163,4.127,8.189,6.898,14.218,7.857
				c0.288,0.096,0.631,0.156,1,0.223c0.45,0.082,0.949,0.172,1.168,0.227c1.481,0.352,2.757,0.916,3.701,1.641
				c2.701,2.023,3.88,5.871,2.865,9.352c-0.396,1.336-1.274,2.016-2.607,2.016c-2.213,0-4.726-1.807-5.375-3.857
				c-0.739-2.402-2.754-3.893-5.254-3.893c-1.91,0-3.753,0.891-4.812,2.322c-0.967,1.311-1.213,2.961-0.691,4.654
				c2.165,6.896,8.688,11.715,15.862,11.715c5.103,0,9.61-2.561,12.366-7.031C878.01,1296.036,875.566,1286.819,871.02,1281.241z"/>
		</g>
	</g>
</g>
</svg>
